<?xml version="1.0" encoding="utf-8"?>
<svg version="1.1" id="Layer_1" xmlns="http://www.w3.org/2000/svg" x="0px" y="0px" width="100%" viewBox="0 650 4001 2500" enable-background="new 0 650 2001 2500">
  <path fill="#FEFEFE" opacity="1.000000" stroke="none" d=" M1956.385498,2945.949951 C1944.331665,2932.217041 1932.793091,2917.984375 1920.084473,2904.886963 C1906.388062,2890.771484 1890.798340,2878.832520 1872.476074,2871.004395 C1857.900391,2864.777344 1842.333130,2863.347412 1826.802246,2862.164307 C1806.641357,2860.628174 1786.444214,2859.564941 1766.259033,2858.357178 C1763.313599,2858.180908 1760.348511,2858.332520 1756.059692,2858.332520 C1755.253784,2864.227295 1754.032471,2869.641602 1753.886108,2875.084961 C1753.684692,2882.577393 1753.171631,2884.285889 1745.717041,2886.380859 C1732.389404,2890.126221 1719.390381,2888.066650 1706.989136,2882.511963 C1702.844849,2880.655762 1698.781860,2877.992188 1695.584961,2874.794434 C1690.832397,2870.041016 1689.091064,2864.395264 1692.864136,2857.696289 C1694.751831,2854.344971 1695.732544,2850.242432 1696.121826,2846.378662 C1696.351440,2844.100098 1695.315063,2840.871094 1693.666504,2839.351074 C1672.582764,2819.911621 1663.698975,2794.371094 1657.093750,2767.087402 C1649.036743,2765.884766 1641.054443,2765.455322 1633.176636,2769.338135 C1627.000366,2772.382080 1624.908936,2771.675293 1620.143921,2766.659912 C1619.685425,2766.177246 1619.093140,2765.769775 1618.781738,2765.206543 C1608.920166,2747.359131 1604.628906,2728.737549 1612.024292,2708.920166 C1614.757568,2701.595703 1621.268555,2696.003174 1630.954102,2698.259033 C1638.535156,2700.024658 1645.838257,2698.034424 1653.253174,2695.122070 C1654.214844,2677.772949 1657.015381,2660.775391 1654.286865,2643.455566 C1650.606323,2620.091553 1640.593262,2600.593262 1621.743530,2585.959961 C1605.067017,2573.014160 1586.219482,2564.351074 1565.958008,2556.952637 C1563.196289,2563.525635 1564.153076,2569.113281 1566.153809,2574.834473 C1568.999390,2582.971436 1568.139282,2586.431885 1560.786011,2590.676514 C1556.008545,2593.434814 1550.515869,2595.327637 1545.104370,2596.542480 C1530.106567,2599.908691 1514.995728,2600.338379 1500.041748,2596.053711 C1492.895020,2594.006104 1486.393066,2590.622803 1481.506714,2584.870361 C1477.204834,2579.805908 1475.101685,2574.163086 1478.026123,2567.469727 C1479.195312,2564.793701 1479.778809,2561.862061 1481.176636,2557.232422 C1472.208984,2558.562744 1464.553223,2559.583252 1456.938354,2560.849609 C1432.456177,2564.920166 1408.065063,2565.858887 1384.052979,2558.231445 C1362.164185,2551.278809 1342.616455,2540.361328 1326.794434,2523.345459 C1312.292969,2507.749512 1307.219849,2488.359131 1303.869751,2468.101074 C1300.954102,2450.470703 1298.896362,2432.509766 1293.866821,2415.459473 C1284.889160,2385.025391 1263.027100,2365.837891 1234.225708,2354.010010 C1233.714844,2353.800537 1232.986084,2354.121582 1231.989380,2354.238281 C1238.035278,2361.712646 1244.445190,2368.703125 1249.752319,2376.449219 C1255.556519,2384.920898 1260.669800,2393.916504 1265.498047,2402.995605 C1274.122437,2419.212646 1272.979126,2436.368652 1268.950562,2453.478027 C1264.249146,2473.445312 1263.287231,2492.949707 1274.017456,2511.495605 C1282.486816,2526.134033 1293.613281,2538.428467 1307.764771,2547.638672 C1318.337158,2554.519775 1329.509155,2560.474854 1340.355957,2566.939941 C1376.565308,2588.521729 1407.376343,2615.965332 1430.837280,2651.193848 C1450.943970,2681.385986 1462.122437,2715.026123 1465.951538,2750.794189 C1468.063721,2770.523926 1468.363525,2790.634521 1467.342407,2810.463135 C1466.235596,2831.957275 1462.026001,2853.229736 1455.863770,2873.949951 C1444.388306,2912.536133 1426.952393,2948.155518 1402.623047,2980.364258 C1374.720947,3017.302490 1339.123047,3044.470459 1297.187866,3063.437988 C1259.996826,3080.259521 1220.749634,3089.553955 1180.294067,3094.393066 C1147.523926,3098.312500 1114.664429,3099.880371 1081.798218,3097.506836 C1040.803223,3094.546143 1003.173157,3081.515381 970.941711,3055.350830 C936.154175,3027.110352 914.578613,2990.416016 904.179260,2947.076660 C896.472168,2914.957031 895.494446,2882.698975 904.227051,2850.573486 C908.647827,2834.310547 916.099121,2819.580566 928.061646,2807.405273 C948.234009,2786.874268 972.282288,2782.545654 998.169617,2794.808838 C1012.253113,2801.480225 1027.836670,2814.800049 1038.774414,2830.036621 C1034.518921,2830.036621 1031.130371,2830.155762 1027.752563,2830.015381 C1015.342346,2829.500732 1003.187378,2830.796875 991.778076,2835.937988 C971.714539,2844.978760 960.838562,2866.991943 965.430481,2888.634521 C965.898804,2890.841309 966.277771,2893.067139 966.604065,2894.787598 C971.333923,2893.108643 976.130493,2889.656982 980.093445,2890.437744 C985.165710,2891.437012 990.153015,2895.217773 994.122925,2898.927734 C1000.515137,2904.901367 1004.536987,2912.595703 1006.579102,2921.245605 C1008.595398,2929.786621 1008.574463,2929.981201 1000.450012,2935.211426 C998.784058,2936.283936 997.214844,2937.506592 994.598816,2939.376465 C1023.064392,2966.045898 1056.993286,2974.593262 1093.881348,2979.491943 C1093.881348,2976.823975 1094.222534,2974.331299 1093.819946,2971.965332 C1092.380615,2963.505615 1094.172485,2958.719238 1101.162109,2954.428711 C1111.610229,2948.014648 1123.212280,2947.634766 1134.925415,2948.621826 C1138.842651,2948.951904 1142.755737,2949.992920 1146.536621,2951.148438 C1156.091919,2954.068115 1157.568970,2956.770752 1157.873779,2966.653320 C1158.010132,2971.077881 1159.879517,2975.449463 1161.068604,2980.275391 C1181.907959,2980.645752 1200.061157,2975.163574 1216.758545,2964.857666 C1251.617310,2943.343506 1269.077026,2910.237549 1277.731323,2871.593994 C1281.292969,2855.690674 1282.661255,2839.516846 1281.221802,2822.718018 C1273.505981,2822.754883 1266.464844,2824.253174 1260.697388,2829.000977 C1255.865356,2832.978760 1251.606323,2832.336182 1247.251099,2828.849121 C1245.218140,2827.221436 1243.303589,2825.329590 1241.738037,2823.253906 C1232.500854,2811.007568 1227.380737,2797.025635 1225.956421,2781.902344 C1225.443237,2776.452881 1226.370850,2770.558594 1227.996704,2765.285156 C1230.860107,2755.997803 1236.062134,2752.842773 1245.748657,2752.272461 C1250.274902,2752.006104 1254.763550,2751.103760 1260.005127,2750.389160 C1254.609985,2739.366699 1246.571167,2732.481445 1237.801392,2726.434326 C1216.610718,2711.822266 1192.383667,2705.159424 1166.235352,2699.121338 C1166.528931,2703.989746 1166.519775,2707.837891 1167.038452,2711.613281 C1168.160767,2719.779541 1167.079346,2722.389404 1159.702393,2725.829102 C1156.747314,2727.206787 1153.480469,2728.235840 1150.255127,2728.661621 C1130.778931,2731.231934 1111.749023,2729.951904 1094.223145,2720.141357 C1090.016235,2717.786621 1086.188110,2714.262695 1083.093018,2710.525391 C1078.073120,2704.463135 1076.721069,2697.698242 1081.144653,2690.271729 C1083.102051,2686.985840 1083.847046,2682.977783 1085.403564,2678.555420 C1059.544556,2669.653076 1035.189331,2659.215332 1012.881653,2643.856201 C1005.415405,2648.344482 998.532166,2653.179932 994.411804,2661.324463 C991.583862,2666.914307 987.046997,2668.888672 981.232727,2667.173096 C976.814270,2665.868896 972.333374,2664.141846 968.480774,2661.667969 C954.274902,2652.544922 942.565308,2640.901123 934.624390,2625.813965 C931.308960,2619.514648 929.688904,2612.747314 930.370850,2605.613037 C931.040222,2598.609863 933.777466,2593.069824 940.847656,2590.050537 C944.983276,2588.284668 948.621582,2585.354248 952.061523,2583.210693 C947.864868,2571.663818 943.110657,2561.380615 940.400757,2550.584473 C933.207275,2521.925781 939.945862,2495.340332 954.342224,2470.245605 C962.528381,2455.976318 973.293579,2443.798096 985.798279,2431.536865 C987.143982,2429.874023 987.683350,2429.047852 988.806396,2428.112305 C989.570740,2427.316895 989.751343,2426.630859 990.593140,2426.094727 C993.161377,2425.106201 995.068481,2423.967773 996.927246,2422.339355 C997.218201,2421.372314 997.557556,2420.895508 997.896851,2420.418945 C997.715088,2420.325439 997.533203,2420.231934 997.351318,2420.138428 C997.079041,2420.819824 996.757446,2421.488037 996.568298,2422.191650 C996.520020,2422.371338 996.891357,2422.663818 996.361450,2422.544189 C993.794128,2423.489746 991.935120,2424.795410 989.523193,2425.859863 C988.318909,2426.056396 987.667664,2426.493896 986.483765,2427.129395 C985.162476,2428.076172 984.373779,2428.824951 983.585083,2429.573730 C946.776794,2452.494141 919.286255,2482.761475 907.771240,2525.647705 C905.103699,2535.582520 902.384888,2545.504150 899.621399,2555.412842 C889.507935,2591.675293 864.891235,2613.453369 829.796814,2624.106934 C820.059753,2627.062500 809.700684,2628.063232 799.572815,2629.604736 C792.617249,2630.663330 790.394104,2632.570801 789.671204,2639.587158 C788.314270,2652.757080 784.239319,2656.923584 771.024414,2658.054443 C759.325317,2659.055176 748.542603,2656.024414 739.068604,2649.189453 C729.658386,2642.400391 728.138245,2633.286133 733.816528,2623.338379 C735.559387,2620.284912 736.508850,2616.779053 737.860168,2613.383057 C715.790955,2595.665771 702.557739,2572.210205 689.913147,2548.507812 C684.435059,2546.566650 680.126221,2548.177734 675.872009,2551.487305 C668.992737,2556.838867 664.450562,2557.421875 657.853271,2552.472168 C645.900208,2543.503662 638.104797,2531.856445 638.363220,2516.196777 C638.559509,2504.305420 642.512573,2500.117676 654.211426,2497.512451 C658.245911,2496.614014 661.966736,2494.306885 666.693970,2492.271729 C658.506592,2470.974609 653.762451,2449.405273 643.110840,2430.230713 C632.359741,2410.876709 614.558533,2399.047607 594.936890,2389.911133 C588.644348,2386.980957 582.008545,2384.788086 575.194031,2382.126953 C570.924805,2387.467041 568.431763,2392.624756 572.513123,2399.266357 C576.482727,2405.725342 573.978760,2411.492920 569.408325,2416.478760 C560.212524,2426.509766 538.348328,2431.027344 525.801575,2425.692383 C516.412048,2421.699707 513.329346,2416.857422 514.271118,2406.298828 C514.936707,2398.836914 512.275391,2392.764648 508.202087,2387.058350 C477.691315,2396.704102 454.371948,2430.106689 458.516327,2463.895508 C460.996033,2462.884766 463.294556,2462.134277 465.418579,2461.043945 C470.104462,2458.638184 474.420502,2459.369385 478.546082,2462.265625 C487.351746,2468.447021 494.436401,2486.782959 490.389008,2497.052246 C487.503448,2504.373047 484.589783,2507.031982 476.683624,2507.699707 C474.195496,2507.909424 471.738617,2508.489746 468.460663,2509.034912 C473.744385,2520.534180 481.692078,2527.779053 492.143890,2531.832031 C504.268890,2536.534180 516.830200,2539.090820 530.018127,2536.273926 C548.083374,2532.414551 553.340942,2514.109863 548.821655,2501.513428 C545.645386,2492.660400 537.775513,2489.798096 529.501770,2494.315674 C526.922791,2495.723877 524.675171,2497.738770 522.251526,2499.493408 C519.560181,2492.281982 521.472412,2484.206787 527.197571,2478.327881 C533.199951,2472.164307 542.181396,2470.087402 550.143066,2473.402100 C564.003906,2479.172119 572.783813,2489.968262 576.634460,2503.977051 C583.957642,2530.619873 579.065186,2555.075195 558.686218,2574.468506 C541.662354,2590.668945 520.292969,2593.249268 498.054688,2588.769775 C475.588440,2584.244141 457.267578,2571.682129 439.867828,2557.414795 C413.429230,2535.735596 398.012115,2507.786377 393.097229,2474.287842 C389.391968,2449.033691 391.469269,2423.999023 398.988953,2399.404541 C407.812592,2370.544922 422.342316,2344.937500 443.330505,2323.490479 C470.283417,2295.947754 502.381714,2277.092285 541.331970,2272.542480 C563.304932,2269.975586 584.998657,2273.299561 606.351685,2278.921387 C642.056458,2288.322021 674.907227,2304.321533 706.062012,2323.578125 C735.470764,2341.755371 764.181824,2361.105957 792.684753,2380.689941 C814.420471,2395.624268 836.768555,2395.802002 859.854675,2385.734131 C879.883423,2376.999268 896.909729,2363.708984 912.758179,2348.786133 C926.385498,2335.954590 932.132629,2320.193848 929.526794,2301.965088 C925.615295,2274.603516 911.950012,2253.518311 886.575012,2241.243164 C881.316711,2238.699707 875.285034,2237.055908 869.466125,2236.498291 C849.915405,2234.625488 835.739624,2245.302734 831.822449,2265.606201 C827.694336,2287.002441 815.444885,2301.968018 796.405579,2310.724121 C764.468567,2325.412109 730.965881,2317.336914 710.004578,2287.752197 C698.261353,2271.177734 691.623596,2252.504883 688.306213,2232.600098 C685.286987,2214.484375 685.039062,2196.348877 687.849060,2178.134521 C691.540894,2154.204590 707.982971,2139.569092 732.286316,2139.804199 C740.184387,2139.880371 748.181885,2141.004639 755.911255,2142.678223 C760.113220,2143.587891 763.720398,2144.669434 766.796204,2141.070801 C770.104126,2137.200684 770.908691,2132.534668 768.614990,2128.039307 C766.526489,2123.946289 763.963806,2119.942627 760.910645,2116.524414 C753.230896,2107.926758 743.330750,2102.429443 732.904541,2097.833984 C699.855347,2083.267090 667.335327,2085.971436 636.032654,2102.427246 C616.653748,2112.614990 597.364136,2123.430176 579.636536,2136.189697 C555.456299,2153.593018 528.735657,2162.886719 499.895599,2167.817871 C464.701538,2173.834717 429.237671,2175.930420 393.703278,2173.472900 C356.633545,2170.909180 320.016571,2164.943604 284.102570,2154.942871 C244.220444,2143.837158 214.852448,2119.502686 193.536499,2084.619385 C174.162567,2052.914551 164.081406,2017.992432 157.878937,1981.738892 C152.478668,1950.174316 151.004700,1918.286255 152.538040,1886.414185 C154.227036,1851.307251 162.949615,1817.597778 177.557266,1785.582397 C193.275757,1751.132324 214.185242,1720.193237 239.984131,1692.337646 C271.258972,1658.569214 307.528717,1631.336182 347.065735,1608.316284 C383.313812,1587.211304 420.926544,1568.907227 461.489624,1557.439575 C484.525848,1550.927124 507.951935,1546.506470 531.961975,1545.647339 C541.240051,1545.315430 550.508667,1544.445801 559.785095,1544.389893 C597.139282,1544.164795 633.901306,1549.293457 670.034546,1558.354980 C753.253723,1579.224731 829.036072,1615.996704 898.433350,1666.269043 C913.762146,1677.373535 929.198059,1688.418335 945.296631,1698.334717 C953.334351,1703.285889 962.751648,1706.473999 971.951477,1708.947388 C984.851868,1712.416016 995.620361,1706.866821 1001.766052,1694.865967 C1004.029419,1690.446167 1005.581177,1685.667114 1007.578979,1681.105225 C1013.651917,1667.237793 1024.304688,1660.493652 1039.422485,1659.566650 C1059.128174,1658.358521 1077.023315,1664.388306 1093.766479,1673.432617 C1108.909912,1681.612671 1123.557373,1690.957031 1137.483154,1701.081665 C1154.108154,1713.169189 1161.325317,1730.751465 1162.350708,1751.057983 C1163.817871,1780.114624 1153.332031,1805.767456 1139.762085,1830.517334 C1137.052246,1835.459595 1133.730713,1840.065918 1130.704346,1844.835327 C1120.744995,1860.530396 1125.346924,1876.997681 1142.482422,1884.211182 C1150.976562,1887.786865 1160.070312,1890.219360 1169.107910,1892.173096 C1204.740967,1899.876953 1236.393799,1915.066162 1261.898193,1941.499146 C1284.010254,1964.416260 1298.410767,1991.978516 1308.091553,2022.112305 C1316.727051,2048.992920 1323.894409,2076.258301 1327.168945,2104.352051 C1328.818359,2118.503906 1329.490356,2132.779785 1330.285889,2147.017334 C1330.989624,2159.610107 1330.757202,2172.272949 1331.900879,2184.816895 C1332.554199,2191.983643 1334.278198,2199.324707 1337.007935,2205.976807 C1344.335571,2223.833496 1359.433228,2231.040039 1377.513306,2231.489502 C1404.749390,2232.166260 1429.308716,2224.571289 1448.969116,2204.518555 C1467.593628,2185.522461 1486.287720,2166.594727 1504.962402,2147.647705 C1505.653442,2146.946533 1506.463135,2146.362305 1507.405029,2145.564697 C1508.198242,2146.054688 1509.329712,2146.345459 1509.704224,2147.042725 C1535.024292,2194.181396 1559.766602,2241.642090 1585.895752,2288.326904 C1592.796997,2300.657227 1594.502808,2311.136719 1587.582764,2323.145264 C1585.069214,2327.506836 1585.856323,2331.636963 1587.534180,2336.368896 C1598.485474,2367.255127 1575.304810,2398.525146 1542.505737,2397.730225 C1534.980713,2397.547607 1529.088745,2394.350830 1523.941406,2389.354492 C1521.580322,2387.062744 1519.565063,2384.414307 1517.121338,2381.616943 C1483.507202,2415.722900 1446.287109,2416.525146 1405.304321,2392.951904 C1408.830566,2404.011963 1413.771118,2412.805420 1419.653076,2420.979248 C1424.291626,2427.424805 1429.352783,2433.696289 1435.001465,2439.257568 C1446.298218,2450.379883 1460.755859,2454.413086 1476.075684,2454.148193 C1495.645752,2453.809814 1515.206177,2452.454102 1534.749878,2451.209229 C1548.964355,2450.303955 1563.126953,2448.512207 1577.346924,2447.783936 C1588.531982,2447.210938 1599.777954,2447.372803 1610.981812,2447.708008 C1639.995972,2448.576416 1664.955811,2460.564453 1688.180298,2476.801025 C1711.723999,2493.260498 1730.036499,2514.551758 1744.608398,2539.182617 C1756.161133,2558.709961 1759.276367,2579.974609 1754.679810,2601.708740 C1750.229126,2622.753174 1744.033813,2643.471680 1737.780029,2664.083008 C1723.083496,2712.519531 1734.288696,2755.169434 1768.233398,2791.158447 C1793.368652,2817.807617 1826.076538,2832.134277 1862.231201,2837.405273 C1874.988892,2839.265381 1888.091187,2838.054932 1900.884644,2831.924805 C1920.150391,2868.963379 1939.145508,2905.482178 1957.991455,2943.195068 C1957.356812,2944.909424 1956.871094,2945.429688 1956.385498,2945.949951 M791.876831,2225.645508 C792.041382,2227.964600 791.783203,2230.413330 792.446228,2232.579834 C794.829956,2240.368896 792.611572,2247.758057 790.220032,2254.864746 C785.755554,2268.131104 775.516724,2273.354492 762.070190,2269.794922 C753.806641,2267.607422 747.116089,2262.645508 741.567322,2256.364746 C724.347839,2236.874023 717.273010,2214.487061 722.422180,2188.319092 C719.786743,2192.458984 717.336792,2196.720215 716.106934,2201.308350 C711.087036,2220.034424 715.783936,2237.439941 724.504944,2253.971924 C731.125977,2266.523193 740.123718,2277.027832 753.165649,2283.459717 C772.121582,2292.808350 789.341980,2285.871338 795.934021,2265.842773 C800.583557,2251.716553 798.917603,2237.715576 793.610840,2222.678711 C792.273193,2219.981201 790.935608,2217.283936 789.597961,2214.586426 C789.310303,2214.730713 789.022644,2214.875000 788.734985,2215.019531 C789.873047,2218.001953 791.011108,2220.984619 791.876831,2225.645508 M826.701172,1901.766968 C798.120239,1893.524292 770.996887,1896.464966 747.587708,1915.403809 C722.096680,1936.026855 710.876831,1964.958984 704.040161,1997.305786 C710.648499,1994.934692 716.066956,1992.724854 721.643250,1991.036377 C744.907288,1983.992188 768.201721,1980.935547 791.931213,1989.509766 C806.720947,1994.853882 819.108276,2003.441162 829.456848,2015.023071 C850.033752,2038.052612 887.435486,2037.671143 908.273071,2024.871704 C929.427795,2011.877441 943.711548,1993.059814 956.065002,1972.299561 C957.440430,1969.988159 958.398926,1967.428833 959.128540,1965.880615 C946.096436,1965.342407 933.558838,1965.189575 921.084351,1964.222290 C903.274109,1962.841431 887.572693,1956.225098 874.913940,1943.330200 C870.734253,1939.072510 867.175293,1934.210815 863.072937,1929.870605 C852.792419,1918.993652 842.886169,1907.595459 826.701172,1901.766968 M789.589844,1835.979614 C773.393066,1841.784424 761.318542,1852.233887 752.618103,1868.189331 C814.072693,1851.812256 865.029785,1861.216064 897.469055,1921.243164 C888.730042,1889.529785 870.842102,1864.745117 843.904724,1846.850464 C828.023254,1836.300171 810.781494,1829.932739 789.589844,1835.979614 M724.925903,2185.066162 C724.925903,2185.066162 725.047974,2184.971436 724.925903,2185.066162 M898.813843,1924.817261 C898.813843,1924.817261 899.052979,1924.599487 898.813843,1924.817261 z"/>
  <path fill="#FEFEFE" opacity="1.000000" stroke="none" d=" M1288.289429,1805.716675 C1297.801636,1818.846924 1307.031616,1832.194458 1316.918213,1845.036499 C1324.404541,1854.760742 1332.579224,1863.972290 1340.717163,1873.173462 C1351.720581,1885.614136 1365.946899,1889.169434 1381.509766,1885.353516 C1393.488403,1882.416260 1403.801025,1884.945190 1413.767334,1891.058960 C1419.997681,1894.880859 1426.309692,1898.642578 1432.153442,1903.008667 C1456.417358,1921.137939 1483.842041,1931.613892 1513.548950,1935.781128 C1529.916870,1938.077148 1546.598145,1939.845459 1563.065552,1939.365234 C1595.317017,1938.424927 1627.024902,1932.653809 1657.885132,1923.146606 C1703.148560,1909.202393 1746.530396,1890.700195 1787.032593,1866.067749 C1831.910278,1838.774170 1858.289185,1798.345215 1868.058350,1747.032959 C1877.083130,1699.630371 1870.801025,1653.180542 1857.644653,1607.439209 C1847.593506,1572.494019 1833.320801,1539.313232 1814.390991,1508.123413 C1803.953369,1490.926025 1790.836792,1475.931030 1777.424927,1461.243042 C1756.329590,1438.140625 1733.721680,1416.636841 1707.705933,1398.881592 C1674.355103,1376.120728 1637.873047,1360.603149 1598.971191,1350.527954 C1561.885132,1340.922852 1524.219604,1336.058838 1485.822388,1335.354736 C1466.232422,1334.995728 1446.653198,1335.125244 1427.247070,1336.603760 C1371.487183,1340.851685 1316.433838,1349.638062 1264.784546,1372.351807 C1210.468384,1396.238525 1170.917969,1435.410645 1148.014893,1490.549072 C1141.345825,1506.604736 1138.590698,1523.236816 1146.816284,1539.691650 C1149.448486,1544.957153 1153.204712,1549.776611 1157.069824,1554.263184 C1159.135254,1556.660767 1162.607910,1559.525879 1165.307861,1559.392700 C1174.645996,1558.931396 1177.547974,1565.552612 1181.361084,1571.754028 C1191.778931,1588.697510 1202.369019,1605.534912 1213.576782,1623.514526 C1203.289429,1624.976440 1194.278076,1626.191162 1184.668701,1624.946899 C1173.139648,1623.453979 1161.747925,1622.087646 1150.542725,1618.638184 C1112.707642,1606.991089 1090.516479,1580.733887 1080.292969,1543.605469 C1070.899292,1509.490112 1076.505493,1476.453003 1089.691772,1444.394165 C1102.604004,1413.001465 1121.794434,1385.685059 1144.112305,1360.221069 C1177.554565,1322.064575 1218.563965,1294.127075 1263.005859,1270.888184 C1289.913452,1256.817627 1318.893188,1248.107788 1348.565552,1241.785645 C1351.778564,1241.100952 1354.967529,1240.304077 1358.678345,1239.440430 C1360.153809,1234.714355 1361.894165,1230.053833 1362.990967,1225.246460 C1363.549316,1222.798340 1363.495728,1219.922607 1362.775879,1217.523193 C1360.335693,1209.390259 1361.201294,1205.282471 1368.046265,1200.916138 C1372.201904,1198.265381 1376.792358,1195.989502 1381.496460,1194.566040 C1393.239258,1191.012207 1405.094971,1187.679199 1417.560913,1191.458740 C1429.018677,1194.932617 1431.394409,1197.656494 1432.344238,1209.300415 C1433.049194,1217.942749 1438.759277,1223.706299 1444.368896,1229.315552 C1445.646362,1230.592773 1448.751465,1230.264648 1451.019531,1230.288818 C1458.984985,1230.373535 1466.969727,1229.940674 1474.915771,1230.335205 C1498.439575,1231.503784 1521.947998,1232.981689 1545.463989,1234.310913 C1547.435059,1234.422363 1549.417969,1234.325562 1551.401978,1234.325562 C1554.470215,1229.512573 1556.895752,1225.075562 1554.679077,1219.249390 C1553.052734,1214.975098 1555.102539,1211.421875 1558.676514,1208.922852 C1560.828979,1207.417847 1563.097656,1205.837402 1565.557129,1205.052124 C1585.131104,1198.802856 1604.657349,1198.077026 1623.611084,1207.135986 C1636.595581,1213.341797 1639.172485,1219.325562 1636.141602,1233.338867 C1634.186646,1242.377808 1639.638062,1251.449951 1648.545654,1253.599121 C1688.657715,1263.277222 1727.323853,1277.222046 1766.390259,1293.553467 C1772.283203,1289.036133 1778.951172,1284.614746 1784.695557,1279.211304 C1787.314087,1276.748047 1788.795410,1272.490967 1789.579346,1268.790527 C1790.971680,1262.219360 1794.978027,1259.135010 1801.102661,1258.120483 C1803.386230,1257.742188 1805.763306,1257.535767 1808.063232,1257.708618 C1831.363159,1259.460327 1852.245605,1267.127930 1868.571289,1284.354004 C1872.489136,1288.488037 1875.326172,1294.338867 1876.771484,1299.891724 C1877.816772,1303.907104 1877.330933,1310.300049 1874.761719,1312.914429 C1866.272827,1321.553101 1867.538086,1331.643677 1868.088989,1341.898315 C1868.177734,1343.549561 1868.540283,1345.186157 1868.790894,1346.932251 C1902.267334,1367.625488 1933.092896,1391.761841 1961.845215,1419.248779 C1971.341431,1416.012817 1980.870972,1413.552490 1985.017822,1402.698364 C1986.802368,1398.027588 1990.988159,1395.164185 1996.122803,1395.794556 C2002.626953,1396.593018 2009.523804,1397.152466 2015.375366,1399.771729 C2036.442383,1409.201660 2053.496582,1423.885010 2066.894287,1442.634033 C2073.409180,1451.751465 2076.792969,1461.919800 2076.500488,1473.468628 C2076.273193,1482.444458 2072.307861,1488.344482 2065.288086,1493.305420 C2061.655518,1495.872681 2057.646240,1499.213501 2056.065674,1503.118896 C2052.226562,1512.605347 2049.536621,1522.578979 2046.809326,1532.473755 C2046.284912,1534.375977 2047.330078,1536.993042 2048.281494,1538.978149 C2065.896973,1575.727295 2078.367920,1614.099487 2084.957520,1654.347290 C2085.866211,1659.897095 2087.402588,1665.445679 2087.451660,1671.005371 C2087.497559,1676.212280 2089.891602,1679.002197 2093.961670,1681.123779 C2098.368164,1683.420776 2102.618896,1686.288818 2107.301514,1687.699097 C2111.174316,1688.865479 2115.692139,1688.973511 2119.721680,1688.314453 C2128.376221,1686.898804 2133.134521,1688.807251 2138.064453,1696.598022 C2144.498535,1706.765015 2146.507080,1718.373901 2147.371338,1729.845581 C2148.669434,1747.084229 2148.147461,1764.412720 2141.866211,1780.983643 C2138.637451,1789.501465 2134.498535,1797.479858 2127.189209,1803.173218 C2120.062012,1808.725098 2112.163574,1812.101440 2103.224854,1807.413086 C2096.049072,1803.649414 2089.478516,1806.860718 2083.079346,1809.126953 C2081.108398,1809.824951 2080.030762,1813.792358 2079.061279,1816.451416 C2072.586670,1834.212646 2067.002197,1852.339966 2059.693115,1869.745728 C2049.129395,1894.902954 2036.139771,1918.924194 2021.362183,1941.885986 C2018.142822,1946.888672 2017.222168,1951.195679 2019.395996,1956.732544 C2023.509644,1967.209717 2026.944946,1977.953857 2031.090454,1988.417358 C2032.959229,1993.134766 2036.367920,1996.738647 2041.628906,1998.364868 C2048.336670,2000.438232 2051.104492,2005.421997 2050.291504,2012.230957 C2049.627441,2017.793091 2049.639404,2023.789307 2047.451172,2028.755859 C2037.212524,2051.995361 2022.519897,2071.912598 2000.671631,2085.588867 C1990.970337,2091.661621 1980.195679,2095.661377 1968.616577,2091.972656 C1964.184326,2090.560547 1959.082153,2087.588867 1956.816040,2083.810059 C1952.244751,2076.187012 1945.308350,2073.163818 1937.798950,2070.330811 C1926.605713,2066.107910 1917.587158,2066.539795 1907.562378,2075.822266 C1885.517456,2096.235352 1860.148193,2112.238281 1831.966064,2123.283936 C1816.103394,2129.501221 1799.612427,2132.753906 1782.631592,2134.458252 C1749.511719,2137.782227 1718.043579,2130.638672 1686.940186,2120.682373 C1661.013794,2112.383301 1635.337891,2103.259521 1609.249023,2095.519287 C1564.629395,2082.281494 1521.247681,2087.594727 1479.283936,2106.594971 C1448.371460,2120.591553 1420.935059,2139.675537 1397.308716,2164.130127 C1395.705688,2165.789307 1393.857788,2167.213867 1392.087158,2168.704346 C1391.942139,2168.826416 1391.511963,2168.609619 1390.768188,2168.461426 C1389.739380,2154.815430 1389.023804,2141.008057 1387.597290,2127.274170 C1384.409302,2096.584961 1380.247314,2066.085449 1370.340454,2036.622925 C1362.560303,2013.484985 1349.854858,1993.565674 1333.333374,1975.787476 C1320.186279,1961.640381 1305.636230,1949.200928 1289.396362,1938.380493 C1291.871338,1924.490723 1294.414429,1910.831299 1296.711548,1897.130371 C1298.517334,1886.360229 1300.867432,1875.585571 1301.460938,1864.729980 C1302.382690,1847.871582 1297.722656,1831.890991 1291.018921,1816.509033 C1289.824707,1813.768921 1288.682373,1811.006348 1287.618652,1807.269287 C1287.721313,1806.284546 1288.289429,1805.716675 1288.289429,1805.716675 M1733.378784,2087.466553 C1734.654297,2095.285889 1738.862305,2100.914551 1746.787598,2105.690186 C1743.158691,2091.439941 1748.174683,2081.402832 1758.007202,2073.617920 C1777.864014,2057.896484 1800.342651,2052.235840 1825.260742,2057.452148 C1838.869995,2060.301025 1848.232422,2067.412109 1848.255981,2083.369629 C1859.547363,2065.577148 1855.473267,2048.391602 1838.109009,2038.807129 C1834.366211,2036.741211 1830.282837,2034.948608 1826.134766,2034.015747 C1797.401001,2027.553955 1771.476562,2033.541992 1748.860962,2052.539307 C1738.571289,2061.182617 1731.748535,2071.774902 1733.378784,2087.466553 M1980.799561,1847.713989 C1993.219238,1828.238159 1998.360107,1806.942261 1996.019409,1784.020874 C1995.197998,1775.977417 1992.935059,1767.772583 1984.306763,1764.605225 C1975.873413,1761.509521 1969.756714,1766.736694 1964.153809,1772.280518 C1949.792725,1786.490112 1943.452026,1804.503296 1940.373901,1823.822144 C1938.695312,1834.356445 1938.441406,1845.116577 1942.406372,1855.346436 C1946.967285,1867.114258 1956.983154,1870.209839 1967.036987,1862.506958 C1971.942383,1858.748535 1975.688232,1853.476562 1980.799561,1847.713989 M1961.664551,1562.785767 C1959.871216,1565.907471 1957.435425,1568.828979 1956.390137,1572.183960 C1950.242920,1591.913574 1963.400513,1617.702148 1977.947876,1625.891724 C1979.947510,1627.017334 1982.156738,1627.844971 1984.356689,1628.527466 C1994.476807,1631.667725 2003.166748,1628.058838 2007.472656,1618.565552 C2008.952759,1615.302124 2009.993530,1611.591919 2010.180176,1608.030396 C2011.176025,1589.038574 2004.068970,1573.218750 1988.896851,1562.071655 C1980.024536,1555.553101 1972.935791,1553.162476 1961.664551,1562.785767 M2010.269165,2014.624023 C2017.565796,2011.418701 2024.719238,2009.852295 2031.170166,2017.223022 C2031.013184,2004.932251 2025.855103,2000.629150 2015.136963,2003.080688 C1994.143555,2007.882324 1968.807495,2035.110352 1965.892944,2056.108887 C1965.575928,2058.392090 1965.491577,2060.784424 1965.790527,2063.062012 C1966.737305,2070.273682 1971.350464,2073.228760 1979.826416,2072.310059 C1974.840576,2064.699219 1974.130615,2059.258057 1977.641968,2050.266113 C1983.695068,2034.765137 1994.638306,2023.553223 2010.269165,2014.624023 M2109.090576,1715.729370 C2097.950439,1725.476685 2094.980713,1738.855713 2094.605225,1752.481445 C2094.364990,1761.192505 2096.104248,1770.335083 2102.248047,1777.651123 C2107.815674,1784.281006 2112.681396,1785.145020 2121.528320,1780.285400 C2111.108154,1778.961670 2107.253418,1772.267578 2105.414062,1763.437988 C2103.332520,1753.444336 2103.751953,1743.601196 2107.377686,1734.195679 C2110.833496,1725.229980 2115.318848,1716.715576 2127.847656,1717.439575 C2122.099609,1710.676025 2116.359863,1711.411865 2109.090576,1715.729370 z"/>
  <path fill="#FEFEFE" opacity="1.000000" stroke="none" d=" M2376.732910,2163.265625 C2340.692383,2128.332031 2298.955566,2105.264893 2250.110352,2096.727295 C2206.190186,2089.050293 2165.583984,2098.399902 2129.547607,2125.212891 C2106.088135,2142.667969 2083.195801,2160.896484 2059.520264,2178.048096 C2011.913330,2212.536621 1958.754395,2234.105713 1900.951538,2244.393799 C1890.850952,2246.191650 1880.757446,2248.048096 1870.621460,2249.625000 C1849.318604,2252.939697 1835.229736,2265.291016 1826.636963,2284.505615 C1820.856323,2297.431885 1819.238037,2311.263672 1818.360962,2325.211670 C1818.216064,2327.514404 1818.340454,2329.833740 1816.752075,2332.879150 C1781.106445,2279.423096 1745.460693,2225.967285 1708.715454,2170.862549 C1800.234375,2199.622803 1877.372681,2174.191162 1946.505859,2115.388672 C1976.970947,2128.410645 2000.727417,2114.990479 2022.539429,2095.800049 C2040.173950,2080.285156 2054.168701,2061.584473 2065.078369,2040.834717 C2069.352051,2032.706177 2072.367432,2023.717041 2074.653809,2014.786499 C2078.745361,1998.804199 2074.235840,1990.377808 2058.602295,1983.533325 C2085.224854,1942.148315 2108.435303,1899.131836 2124.947998,1851.966187 C2141.607422,1851.966187 2158.543213,1851.673950 2175.463135,1852.064087 C2187.719971,1852.346802 2199.979980,1853.281494 2212.191650,1854.426147 C2218.251709,1854.994019 2222.379883,1853.044434 2225.247314,1847.858398 C2228.138184,1842.630127 2231.547363,1837.626099 2233.834717,1832.150146 C2235.141113,1829.022461 2235.421631,1825.019775 2234.845703,1821.635376 C2233.117920,1811.484497 2234.995605,1807.115112 2244.023438,1802.171509 C2253.591797,1796.931885 2264.189941,1795.203735 2274.689941,1794.553467 C2293.334717,1793.398804 2311.820557,1794.924805 2329.440918,1802.185059 C2337.349854,1805.443726 2343.850342,1810.489502 2349.269287,1816.902832 C2355.059082,1823.755005 2356.787354,1831.820435 2353.054688,1840.030640 C2350.023926,1846.697510 2351.002197,1853.030151 2353.023926,1859.261230 C2355.372559,1866.500488 2358.377930,1873.572876 2361.703857,1880.423462 C2362.841553,1882.766113 2365.508545,1885.030151 2367.989258,1885.955322 C2397.081543,1896.804443 2424.777344,1910.303467 2450.234619,1928.209106 C2451.818848,1929.323242 2453.962158,1931.138062 2455.364014,1930.774048 C2464.443115,1928.415894 2474.620361,1928.401733 2480.457764,1918.795654 C2484.482910,1912.172241 2488.838135,1910.227417 2496.551270,1913.333496 C2505.051758,1916.756714 2513.832764,1920.842285 2520.645508,1926.763794 C2529.833252,1934.749756 2537.838379,1944.321655 2545.254883,1954.048706 C2551.135986,1961.762329 2554.208496,1971.139038 2553.622559,1981.155151 C2553.134277,1989.499756 2550.680664,1996.705322 2541.872803,2000.196655 C2535.122314,2002.872681 2532.368652,2008.999512 2529.874512,2015.224976 C2554.612549,2051.233887 2575.259033,2089.082031 2591.377686,2129.333008 C2593.077637,2133.577637 2595.037842,2136.014160 2599.864014,2135.950928 C2607.341309,2135.853271 2614.716309,2137.949951 2621.885498,2132.668213 C2625.784912,2129.795410 2631.891113,2130.696289 2635.736816,2134.703369 C2653.791504,2153.515625 2664.319580,2175.406494 2660.315674,2202.079834 C2658.412842,2214.755859 2653.648438,2218.039551 2640.646484,2220.479980 C2637.555176,2221.060303 2634.517334,2222.925049 2631.905762,2224.820068 C2628.417725,2227.351074 2625.369629,2230.488525 2622.731934,2232.833252 C2624.564209,2249.197998 2626.577881,2264.245850 2627.874268,2279.354736 C2630.840088,2313.921143 2628.911377,2348.223389 2620.702393,2382.006104 C2619.342773,2387.601562 2620.303223,2391.469727 2624.578369,2395.249023 C2629.539062,2399.634521 2633.590576,2404.553711 2641.357910,2404.673584 C2647.921875,2404.774658 2651.313232,2410.386719 2651.478760,2416.330566 C2651.717285,2424.868896 2651.576172,2433.644287 2649.863770,2441.961670 C2646.827637,2456.710449 2641.592773,2470.713135 2630.085693,2481.420410 C2619.768311,2491.020752 2613.204102,2491.787842 2600.891602,2484.576660 C2591.551025,2479.105957 2580.749512,2482.218018 2574.826416,2491.443115 C2564.407959,2507.669434 2553.547607,2523.611084 2543.061523,2539.794922 C2541.021973,2542.942871 2537.726318,2547.486084 2538.691895,2549.932861 C2541.021729,2555.835693 2544.448730,2562.366943 2549.387451,2565.954346 C2559.225586,2573.100830 2560.721680,2573.869141 2558.051025,2585.793945 C2554.915283,2599.795898 2547.215088,2611.570557 2537.468262,2621.684814 C2531.574463,2627.801025 2524.623535,2633.410400 2517.154785,2637.377930 C2505.713623,2643.455566 2498.349365,2640.988770 2489.202148,2631.177002 C2487.048828,2628.866699 2483.910400,2627.102295 2480.889404,2626.059814 C2476.249756,2624.458740 2471.319336,2623.700195 2466.466309,2622.573730 C2441.068359,2644.541016 2413.571533,2662.987305 2383.687500,2678.124756 C2384.058350,2679.901855 2384.106689,2681.248535 2384.620605,2682.384521 C2386.057129,2685.558594 2389.607422,2689.272705 2388.836426,2691.635498 C2387.273926,2696.422607 2384.161377,2701.320801 2380.350342,2704.635254 C2370.975342,2712.789062 2360.008789,2718.706543 2347.660645,2720.755859 C2342.000732,2721.695557 2335.845703,2720.822266 2330.103760,2719.756104 C2324.853760,2718.781494 2321.804443,2714.774414 2320.392578,2709.470947 C2318.161621,2701.088135 2317.983887,2700.916260 2309.716553,2702.370361 C2284.137207,2706.868408 2258.343018,2708.716309 2232.420654,2708.280762 C2169.295654,2707.219971 2109.267822,2693.686279 2054.302979,2661.714111 C2037.675537,2652.041992 2022.331055,2640.187012 2006.175659,2629.674561 C1982.090454,2614.001709 1956.745605,2600.850342 1928.319214,2595.076904 C1911.588745,2591.679199 1894.970337,2591.597412 1879.007812,2599.714600 C1856.814209,2611.000000 1840.610962,2637.775391 1853.036865,2667.897705 C1859.216797,2682.878418 1868.077393,2695.972412 1879.160034,2707.643066 C1883.940918,2712.677734 1888.969971,2717.476807 1895.030029,2723.524658 C1889.222778,2724.934814 1884.687012,2726.473389 1880.029419,2727.089111 C1863.074829,2729.329102 1846.227417,2729.515137 1830.002808,2722.845947 C1805.586670,2712.809570 1793.519531,2693.887939 1791.736816,2668.217285 C1788.869629,2626.928955 1803.797119,2591.889648 1831.535522,2562.209229 C1846.182129,2546.536865 1863.601074,2534.246338 1884.588867,2527.992920 C1902.981445,2522.512451 1921.274170,2524.380371 1939.507690,2528.970703 C1957.964844,2533.617920 1975.241211,2541.295654 1992.341431,2549.445801 C2019.335083,2562.311523 2046.443237,2574.943604 2073.277100,2588.134033 C2078.987061,2590.940918 2082.676758,2590.052002 2086.024658,2585.394775 C2090.326904,2579.409668 2096.506104,2574.617920 2094.725586,2565.383789 C2093.890625,2561.052490 2098.878906,2557.780029 2103.200439,2556.796387 C2122.432617,2552.418701 2140.825439,2554.328125 2157.053955,2566.371094 C2163.291748,2571.000488 2166.484375,2577.451660 2162.963867,2585.635010 C2159.798584,2592.992676 2162.404053,2599.966309 2165.102539,2607.663086 C2170.024658,2607.663086 2175.276367,2608.196777 2180.388916,2607.579102 C2223.092041,2602.419922 2264.793701,2593.415039 2303.672119,2574.152100 C2348.232666,2552.073730 2382.783936,2519.598145 2405.662842,2475.184326 C2423.211670,2441.116455 2432.774414,2404.867432 2436.512451,2366.727295 C2441.196533,2318.934326 2435.736816,2272.671631 2418.296387,2227.964111 C2408.911377,2203.906494 2396.174072,2181.805176 2376.732910,2163.265625 M2331.846436,1825.645996 C2331.632324,1825.606079 2331.418457,1825.566162 2331.204346,1825.526367 C2331.424805,1825.746216 2331.645264,1825.966187 2331.657959,1827.613037 C2330.939697,1835.282349 2325.877197,1839.253784 2319.291260,1841.600220 C2301.300537,1848.010254 2283.548584,1846.672363 2266.198486,1839.198364 C2257.708008,1835.540771 2250.416260,1830.587280 2251.097656,1818.585693 C2245.136230,1827.356689 2244.765869,1829.671753 2249.932373,1835.388428 C2253.189697,1838.992676 2257.194824,1842.387085 2261.539795,1844.461670 C2279.819092,1853.190186 2299.037598,1855.109497 2318.482422,1849.339600 C2323.901367,1847.731567 2329.094971,1843.947998 2333.282471,1839.989014 C2337.780762,1835.736206 2336.718994,1831.393799 2331.846436,1825.645996 M2339.129639,1945.807251 C2328.888428,1943.300537 2318.750977,1940.137939 2308.373047,1938.496094 C2300.156738,1937.196045 2291.799072,1938.906738 2284.370361,1943.048706 C2276.853760,1947.239624 2274.741699,1953.819946 2278.509277,1961.475830 C2280.386230,1965.289795 2282.587646,1969.331665 2285.690674,1972.092163 C2306.671143,1990.757446 2331.060059,2000.225952 2359.413330,1997.726440 C2367.291016,1997.032104 2374.831299,1994.180054 2377.679443,1986.154785 C2380.588379,1977.959106 2375.677002,1971.494263 2370.331299,1965.728027 C2362.041992,1956.786133 2351.681885,1950.960571 2339.129639,1945.807251 M2516.397705,2173.047363 C2517.942139,2173.632568 2519.449707,2174.355469 2521.036865,2174.781006 C2530.643799,2177.355713 2536.570068,2173.557129 2537.963623,2163.879150 C2538.291748,2161.598145 2538.617920,2159.192627 2538.255615,2156.956055 C2534.600342,2134.394043 2524.196533,2115.849121 2505.199219,2102.633545 C2502.795166,2100.961182 2499.976807,2099.656494 2497.159180,2098.849609 C2488.826172,2096.463135 2482.294922,2100.657715 2481.861572,2109.368652 C2481.554688,2115.542480 2481.938232,2122.055908 2483.610596,2127.965820 C2488.811279,2146.346924 2498.993408,2161.492920 2516.397705,2173.047363 M2616.351562,2174.114258 C2617.520508,2177.204346 2618.222900,2180.589844 2619.953857,2183.323975 C2623.812744,2189.420166 2627.653809,2195.680176 2632.505371,2200.950195 C2636.906006,2205.730713 2640.404785,2205.309082 2646.398438,2201.404297 C2634.451660,2197.905762 2629.892822,2188.038330 2625.466797,2178.069092 C2620.827148,2167.617920 2620.444092,2156.845459 2623.878662,2145.835205 C2618.700928,2145.619141 2616.902832,2148.145508 2615.493896,2152.037842 C2612.955322,2159.051270 2614.761230,2165.720215 2616.351562,2174.114258 z"/>
  <path fill="#FDFDFD" opacity="1.000000" stroke="none" d=" M3453.157715,1230.796387 C3441.369629,1194.421387 3429.909424,1158.771484 3418.449219,1123.121582 C3417.729492,1123.184692 3417.010010,1123.247925 3416.290527,1123.311035 C3416.084229,1125.621948 3415.684814,1127.934448 3415.702148,1130.243652 C3415.876221,1153.558716 3415.933105,1176.877075 3416.399170,1200.187012 C3416.784180,1219.449707 3417.661865,1238.702637 3418.346436,1257.959106 C3418.995605,1276.216675 3419.711914,1294.471924 3420.336426,1312.730469 C3421.040771,1333.319092 3421.757080,1353.908325 3422.284668,1374.501953 C3422.420898,1379.810425 3422.123779,1385.163696 3421.562988,1390.447388 C3420.911621,1396.584473 3418.984619,1401.924561 3412.390137,1404.592896 C3393.483643,1412.243652 3373.815186,1416.081909 3353.150146,1417.555054 C3307.972656,1333.857056 3262.884521,1250.324219 3217.796143,1166.791382 C3217.208252,1166.935669 3216.620117,1167.079956 3216.032227,1167.224243 C3216.196045,1169.537109 3216.089600,1171.907349 3216.567627,1174.153442 C3219.878662,1189.722168 3223.323730,1205.262207 3226.689209,1220.819458 C3227.177490,1223.075806 3227.402832,1225.388306 3227.864502,1227.651489 C3229.162598,1234.016846 3228.861084,1239.982544 3222.118896,1245.288086 C3231.260010,1247.518311 3233.050049,1254.171265 3235.122314,1260.671875 C3247.839600,1300.567139 3257.274414,1341.293579 3265.732178,1382.255127 C3268.678467,1396.523804 3271.023926,1410.918091 3273.557373,1425.270142 C3274.762451,1432.097168 3272.817139,1437.272583 3266.531494,1441.257324 C3251.689941,1450.665894 3235.444336,1456.310059 3218.429443,1459.667480 C3209.700439,1461.389893 3200.654053,1461.511719 3191.748535,1462.330444 C3182.363037,1463.193359 3176.301514,1458.422974 3173.363525,1450.131958 C3170.270996,1441.404175 3167.910400,1432.387817 3165.699951,1423.382324 C3160.875732,1403.730591 3156.489746,1383.986572 3155.603760,1363.651855 C3155.504639,1361.377441 3155.054932,1358.997314 3154.203613,1356.894531 C3142.940918,1329.065063 3137.004150,1299.715088 3129.939453,1270.730713 C3110.687988,1191.746826 3091.893311,1112.650879 3073.089355,1033.558716 C3070.640137,1023.256775 3069.582520,1012.623840 3067.130615,1002.322693 C3065.858154,996.977295 3067.765137,994.369873 3071.880859,991.762207 C3085.267578,983.280701 3100.277344,978.913574 3115.184326,974.287659 C3136.455078,967.686768 3158.256348,963.492126 3180.293213,960.517700 C3191.822266,958.961609 3201.575195,960.792480 3208.419189,972.203430 C3223.971924,998.135132 3240.715088,1023.352722 3256.279297,1049.277710 C3277.986572,1085.434814 3299.059326,1121.972778 3321.408203,1160.059448 C3322.265137,1151.122681 3323.379883,1143.883423 3323.572510,1136.619629 C3324.049072,1118.644287 3324.644287,1100.642822 3324.149658,1082.680542 C3323.776611,1069.136353 3321.250000,1055.659790 3320.665527,1042.110840 C3319.990967,1026.473999 3320.198486,1010.788025 3320.387695,995.127808 C3320.584473,978.849854 3321.263916,962.578247 3321.635010,946.301636 C3321.779297,939.981445 3321.658691,933.655212 3321.658691,926.588135 C3329.545654,922.565796 3337.252197,917.994141 3345.440430,914.577271 C3372.225830,903.399963 3399.876709,895.414917 3429.050293,893.661621 C3436.656006,893.204407 3444.273926,892.283569 3451.867676,892.444702 C3463.305908,892.687317 3465.500244,894.566040 3468.885742,905.384460 C3474.239502,922.493103 3479.467773,939.641602 3484.648682,956.803589 C3495.487793,992.707581 3506.310059,1028.616699 3517.023926,1064.558350 C3519.392090,1072.503296 3521.538574,1080.534790 3523.310791,1088.630737 C3524.794678,1095.409668 3525.563721,1102.339844 3522.201660,1109.591064 C3529.520020,1110.129883 3531.776367,1115.833862 3533.654785,1121.395996 C3538.752686,1136.491943 3543.648193,1151.661011 3548.331055,1166.890991 C3553.891113,1184.973999 3559.172852,1203.142944 3564.504639,1221.295410 C3565.420410,1224.414062 3565.984619,1227.636108 3566.903564,1231.650635 C3561.555176,1232.877930 3556.914795,1233.942871 3551.684814,1235.143066 C3552.844971,1242.171265 3557.319824,1245.428833 3562.964111,1246.542603 C3569.386230,1247.810059 3572.838135,1251.807617 3574.778320,1257.295166 C3578.307861,1267.277100 3582.227539,1277.248901 3584.321289,1287.562622 C3585.595703,1293.839600 3587.412842,1299.455444 3589.914062,1305.332764 C3594.176025,1315.346924 3597.052002,1326.025391 3599.713135,1336.624878 C3602.188721,1346.486084 3600.768799,1349.576050 3591.980957,1354.729614 C3574.570068,1364.940430 3555.462891,1370.671265 3535.672607,1373.637939 C3523.607178,1375.446533 3511.281494,1375.519287 3498.570557,1376.406860 C3492.970947,1356.584229 3484.837158,1338.621826 3483.639160,1318.763916 C3483.541504,1317.138062 3483.580078,1315.331055 3482.888428,1313.939697 C3469.811523,1287.630127 3462.688232,1259.205566 3453.157715,1230.796387 M3302.336670,1201.284912 C3301.093994,1193.137695 3295.737793,1187.615723 3289.931152,1182.581665 C3285.301025,1178.567505 3281.301758,1178.418945 3276.485840,1182.607544 C3272.283936,1186.262451 3268.309814,1190.511475 3265.368896,1195.208008 C3260.506104,1202.972534 3262.045898,1207.818970 3269.701416,1212.567139 C3271.388916,1213.613892 3273.154541,1214.619629 3275.011230,1215.295898 C3288.565674,1220.233521 3299.023682,1215.451782 3302.336670,1201.284912 M3190.199463,1189.513062 C3189.017822,1191.111206 3187.491211,1192.559937 3186.722412,1194.336792 C3184.741455,1198.916382 3187.001709,1203.936401 3192.010742,1206.806396 C3196.265381,1209.244141 3202.853027,1209.008423 3204.947754,1206.343140 C3207.411133,1203.209839 3206.772461,1196.785522 3203.562744,1192.407227 C3199.930420,1187.452515 3197.137695,1186.560059 3190.199463,1189.513062 M3409.967529,1046.556030 C3405.060303,1049.596313 3403.188232,1053.746704 3404.763428,1059.534058 C3414.594238,1056.079468 3414.594238,1056.079468 3419.737549,1047.636108 C3416.679688,1047.027588 3414.028320,1046.499878 3409.967529,1046.556030 M3364.115234,1221.861572 C3359.048340,1223.857056 3359.494629,1226.860474 3363.051514,1229.757812 C3367.055420,1233.020020 3372.391846,1231.006958 3376.047852,1225.225952 C3371.687500,1221.823242 3371.714111,1221.706909 3364.115234,1221.861572 M3420.813477,948.321716 C3415.728027,943.034119 3411.708984,942.701660 3404.892090,947.250305 C3409.481445,951.735229 3414.441406,952.346191 3420.813477,948.321716 M3386.467773,1194.802979 C3382.302490,1197.287231 3382.492432,1200.716919 3385.595215,1203.423096 C3388.333740,1205.811646 3391.624512,1205.727173 3393.629883,1200.639771 C3391.841064,1198.929932 3389.840332,1197.017700 3386.467773,1194.802979 M3207.815918,1455.106934 C3208.714111,1455.089233 3209.750244,1455.355835 3210.484131,1454.999634 C3212.537354,1454.003540 3215.198975,1452.398560 3212.900391,1450.097290 C3211.544922,1448.740112 3207.959229,1448.228271 3206.125977,1449.036255 C3202.908447,1450.454102 3205.123291,1452.620728 3207.815918,1455.106934 M3176.624512,1089.771851 C3177.419922,1089.403442 3178.215332,1089.035034 3179.010742,1088.666626 C3176.833496,1084.013428 3174.786377,1083.678589 3169.838379,1087.416748 C3171.768311,1088.242065 3173.544189,1089.001465 3176.624512,1089.771851 M3264.141846,1090.881104 C3264.556641,1086.713501 3264.556641,1086.713501 3259.222412,1085.450195 C3260.703125,1087.796387 3261.803955,1089.540894 3264.141846,1090.881104 M3471.473145,1024.784302 C3474.545166,1026.241211 3475.977539,1024.415039 3475.998291,1021.869141 C3476.007568,1020.741272 3473.966309,1018.573914 3473.008301,1018.656006 C3470.328369,1018.885437 3469.101074,1020.791321 3471.473145,1024.784302 M3122.816650,1097.447144 C3120.147949,1095.683228 3118.540527,1097.150146 3118.192383,1099.558594 C3118.036133,1100.637451 3119.695068,1101.978760 3120.530029,1103.201050 C3121.726318,1101.797119 3122.922363,1100.393066 3122.816650,1097.447144 z"/>
  <path fill="#FDFDFD" opacity="1.000000" stroke="none" d=" M3696.665039,2154.590332 C3728.070557,2147.019531 3758.682373,2139.715820 3790.447510,2132.136963 C3808.070312,2168.896973 3825.660400,2205.588379 3843.671143,2243.157715 C3799.347412,2251.900635 3756.203125,2260.410889 3712.375488,2269.055908 C3712.375488,2286.480225 3712.375488,2303.969482 3712.375488,2323.030029 C3739.553955,2317.708740 3766.001465,2312.530518 3793.281982,2307.189209 C3794.161865,2323.973633 3794.989746,2339.769775 3795.876709,2356.691895 C3767.922607,2361.812988 3740.381104,2366.858154 3713.010742,2371.872314 C3713.010742,2409.093018 3713.010742,2445.628418 3713.010742,2483.448486 C3703.758545,2482.983154 3694.385986,2482.511475 3684.210449,2481.999756 C3683.586426,2473.630371 3682.488525,2465.168213 3682.410400,2456.696777 C3682.171143,2430.748535 3682.323730,2404.796631 3682.323730,2377.401611 C3624.049316,2387.985596 3567.216553,2398.307617 3509.513184,2408.787842 C3512.103271,2427.923096 3514.616943,2446.492432 3517.292236,2466.256836 C3507.379395,2467.436768 3497.414062,2468.623047 3486.863770,2469.878906 C3484.105713,2451.038574 3481.486816,2433.147949 3478.730469,2414.319580 C3421.788086,2424.655762 3365.597656,2434.855469 3308.787842,2445.167480 C3310.824463,2455.486084 3312.709473,2465.037109 3314.709473,2475.170410 C3304.340332,2477.176758 3295.017578,2478.980469 3285.072998,2480.904541 C3282.584717,2470.748779 3280.317139,2461.494873 3277.723145,2450.907227 C3222.309814,2460.920654 3167.084229,2470.900391 3111.001221,2481.035156 C3112.845947,2487.369385 3114.491943,2493.021729 3116.406250,2499.594971 C3106.899170,2502.558350 3097.528809,2505.479248 3087.345703,2508.653320 C3084.781250,2501.501221 3082.365234,2494.762939 3079.523438,2486.837158 C3019.253662,2497.779053 2959.059326,2508.707520 2898.083740,2519.777588 C2900.579834,2526.739502 2902.769043,2532.845215 2905.442383,2540.301514 C2896.185791,2543.613770 2886.736328,2546.995117 2876.676270,2550.594971 C2873.364990,2542.187500 2870.240967,2534.255127 2866.751221,2525.394287 C2811.983887,2535.337158 2757.349609,2545.255859 2701.377441,2555.417480 C2706.756104,2566.818848 2711.745361,2577.395020 2717.120850,2588.790039 C2707.381836,2593.223389 2698.418945,2597.303223 2689.218994,2601.491211 C2682.536865,2587.934326 2676.104248,2574.883057 2669.551025,2561.587646 C2663.429443,2562.445068 2657.938721,2563.214355 2651.327148,2564.140381 C2657.495117,2553.535400 2663.093750,2543.821289 2668.822998,2534.185059 C2669.437744,2533.151611 2670.709473,2532.099609 2671.848877,2531.852783 C2680.990723,2529.875000 2690.917236,2527.480957 2698.693604,2533.740723 C2709.412842,2542.369141 2718.945801,2539.794922 2728.786865,2533.453857 C2732.093018,2531.323486 2735.310059,2528.608643 2737.611572,2525.461670 C2741.947266,2519.533691 2746.984131,2516.495850 2754.583740,2515.100098 C2787.844971,2508.992188 2820.926758,2501.905273 2855.268066,2494.931152 C2848.639404,2477.342529 2842.054443,2459.869385 2835.372803,2442.139648 C2810.739014,2447.011475 2787.044434,2451.697754 2762.727295,2456.506836 C2761.562500,2452.337158 2760.782959,2448.161133 2759.226074,2444.298096 C2756.888184,2438.496826 2753.511963,2434.130859 2745.936035,2434.891113 C2743.017822,2435.183838 2739.238770,2433.748779 2736.924072,2431.816162 C2731.616699,2427.385010 2726.091797,2422.760010 2722.260742,2417.122559 C2716.632812,2408.840332 2724.554443,2400.805176 2724.576660,2392.394775 C2724.589600,2387.395264 2729.690918,2387.890381 2732.933838,2386.899902 C2738.641602,2385.156494 2744.479004,2383.824951 2750.288330,2382.429199 C2803.849121,2369.560303 2857.425781,2356.757568 2910.978027,2343.851807 C2984.525879,2326.127686 3058.052734,2308.317627 3131.594727,2290.569336 C3187.075928,2277.179688 3242.559326,2263.796631 3298.055420,2250.468994 C3376.459473,2231.640869 3454.885254,2212.902588 3533.285156,2194.056885 C3584.264160,2181.802979 3635.213623,2169.425781 3686.177734,2157.110352 C3689.402344,2156.331055 3692.639893,2155.607178 3696.665039,2154.590332 M2935.936279,2478.851807 C2958.051514,2474.480225 2980.213623,2470.332031 3002.268311,2465.674316 C3024.134033,2461.056152 3046.271973,2457.596680 3068.187988,2451.936523 C3062.131592,2433.879395 3056.458740,2416.965332 3050.625000,2399.572266 C2989.147949,2412.027588 2928.163330,2423.481445 2866.812744,2436.145752 C2873.677246,2454.519043 2880.014404,2471.481201 2886.435791,2488.668701 C2903.136963,2485.458740 2918.737549,2482.460449 2935.936279,2478.851807 M3581.741211,2294.529053 C3553.320312,2300.306152 3524.899414,2306.083008 3495.895752,2311.978516 C3498.443359,2330.007812 3500.863281,2347.131836 3503.426514,2365.271973 C3563.388916,2353.167969 3621.905029,2341.355957 3679.664062,2329.697021 C3679.664062,2310.908936 3679.664062,2293.486328 3679.664062,2275.693359 C3669.841553,2277.532227 3660.730957,2279.179443 3651.644531,2280.950439 C3628.908691,2285.382324 3606.183838,2289.869873 3581.741211,2294.529053 M3374.688721,2335.763916 C3345.884033,2341.439697 3317.079346,2347.115723 3287.747803,2352.895264 C3291.880859,2371.191406 3295.780762,2388.455811 3299.739990,2405.983398 C3358.151611,2394.277344 3415.164551,2382.851807 3472.558594,2371.349854 C3469.916504,2352.982910 3467.440918,2335.771973 3464.855713,2317.801025 C3434.761719,2323.863770 3405.576416,2329.743408 3374.688721,2335.763916 M3230.705566,2419.775635 C3243.263672,2417.206055 3255.821533,2414.636475 3269.030029,2411.933594 C3264.901855,2393.867188 3261.018799,2376.874023 3256.924561,2358.957275 C3198.150391,2370.556396 3140.158936,2382.001221 3081.745605,2393.529053 C3087.794922,2411.899414 3093.365723,2428.816162 3099.096680,2446.219238 C3142.709961,2437.466309 3185.873779,2428.803711 3230.705566,2419.775635 z"/>
  <path fill="#FEFEFE" opacity="1.000000" stroke="none" d=" M2681.755615,2024.224121 C2675.947266,2001.218628 2671.355469,1978.798218 2669.793701,1955.931519 C2668.708252,1940.039185 2667.670410,1924.008667 2668.525391,1908.142944 C2671.762939,1848.052490 2694.510742,1797.966187 2746.498291,1764.383057 C2768.924072,1749.896240 2794.175293,1742.514282 2820.902588,1741.857788 C2835.120605,1741.508545 2849.392334,1743.029663 2863.625977,1743.925903 C2866.553711,1744.110229 2869.409912,1745.316650 2872.316650,1745.972290 C2880.742432,1747.873169 2887.198486,1751.672119 2886.883301,1763.137817 C2895.405518,1755.844971 2902.241211,1759.364990 2909.281982,1763.651733 C2934.478027,1778.991943 2954.240723,1799.686035 2970.350586,1824.211182 C2995.489014,1862.481567 3010.282959,1904.990112 3021.794922,1948.841187 C3025.245361,1961.983887 3028.005127,1975.308960 3031.007080,1988.567139 C3031.441406,1990.485596 3031.698730,1992.508789 3031.617432,1994.466064 C3031.438232,1998.775757 3030.253418,2002.156372 3024.849365,2002.463867 C3022.041748,2002.623779 3019.305420,2004.035522 3016.488281,2004.896606 C3019.848877,2013.382935 3020.259033,2013.491455 3032.812744,2009.196533 C3033.757812,2012.223022 3035.200195,2015.181641 3035.567871,2018.268311 C3040.934570,2063.314453 3036.775635,2107.141113 3016.835693,2148.435303 C2999.647461,2184.030762 2972.688232,2209.558350 2935.545410,2223.970703 C2911.962646,2233.121826 2887.558350,2237.609131 2862.372314,2235.516357 C2837.846436,2233.478271 2815.220947,2225.230469 2794.428467,2211.846436 C2764.015625,2192.270020 2741.973633,2165.130127 2724.006348,2134.365479 C2706.639648,2104.628906 2694.772949,2072.602051 2685.782471,2039.453613 C2684.479492,2034.649780 2683.166748,2029.848755 2681.755615,2024.224121 M2815.047607,2057.812012 C2822.000488,2066.689209 2828.305664,2076.182129 2836.039062,2084.317383 C2852.918457,2102.073486 2882.715576,2103.799805 2901.155273,2087.402588 C2904.298340,2084.607666 2908.032715,2082.478027 2911.550049,2080.001221 C2913.481689,2069.851074 2915.767822,2059.507812 2917.337402,2049.056641 C2918.564209,2040.887573 2919.633057,2032.567261 2919.434326,2024.346558 C2919.227783,2015.798828 2916.791016,2007.317017 2916.418945,1998.759033 C2915.204590,1970.832031 2902.553711,1946.500610 2892.773438,1921.253296 C2892.300293,1920.031494 2891.530273,1918.879028 2890.708496,1917.844971 C2879.899170,1904.241211 2867.876953,1891.768555 2853.501709,1881.990356 C2841.178955,1873.608154 2827.669678,1870.836670 2814.445312,1879.987427 C2798.060059,1891.325806 2787.785400,1907.043335 2786.566406,1927.139404 C2785.768066,1940.298706 2786.856201,1953.618042 2787.727051,1966.824219 C2789.829346,1998.697510 2797.787598,2028.922974 2815.047607,2057.812012 M2763.497803,1839.905151 C2767.206543,1842.129639 2770.824951,1842.948730 2774.209473,1839.294434 C2777.275146,1835.984497 2776.053711,1832.628540 2774.368652,1829.254883 C2773.927246,1828.371338 2773.655518,1827.334106 2773.017334,1826.628296 C2767.255859,1820.256226 2761.104004,1814.394409 2752.637695,1811.523560 C2747.132812,1814.883423 2746.286621,1819.591553 2749.518555,1824.236328 C2753.224854,1829.562134 2757.961670,1834.170776 2763.497803,1839.905151 M2798.957031,1827.611694 C2796.387207,1824.090332 2793.041504,1821.595825 2789.185791,1824.992310 C2785.705566,1828.057983 2788.476318,1831.601929 2790.224609,1834.691650 C2790.860107,1835.814209 2791.785400,1836.772949 2792.343994,1837.500977 C2797.497803,1836.289795 2799.683350,1833.479980 2798.957031,1827.611694 M2739.936523,2121.580811 C2739.537109,2125.442139 2740.868408,2129.025391 2745.038574,2128.026367 C2750.129883,2126.806641 2750.631592,2121.690430 2751.604492,2117.179443 C2746.643311,2115.215332 2743.305664,2116.677246 2739.936523,2121.580811 M2991.360840,2010.230225 C2988.670898,2006.706787 2985.775879,2004.805542 2981.375977,2009.547119 C2982.727783,2011.560181 2983.646729,2014.326294 2985.538574,2015.442017 C2989.018555,2017.494263 2991.881836,2016.644531 2991.360840,2010.230225 M2999.573730,2029.615967 C2998.105957,2027.148804 2995.972656,2024.582397 2993.730225,2028.040771 C2991.340820,2031.726440 2994.880371,2033.513428 2998.107666,2035.968018 C2998.820801,2033.822754 2999.294189,2032.398438 2999.573730,2029.615967 M2758.234375,1992.787598 C2758.841553,1993.810669 2759.448730,1994.833740 2760.055908,1995.856812 C2761.775146,1994.210327 2763.612061,1992.658569 2765.088867,1990.817627 C2765.315430,1990.535278 2763.881592,1988.920410 2763.215820,1987.921753 C2761.568115,1989.044678 2759.920166,1990.167480 2758.234375,1992.787598 M2920.367920,1809.770264 C2922.618164,1806.082764 2921.192383,1804.306396 2916.538330,1803.594482 C2915.819580,1805.595093 2914.314941,1807.716553 2914.528809,1809.647949 C2914.898926,1812.991577 2917.263916,1812.782959 2920.367920,1809.770264 M2740.079834,2085.552002 C2736.723389,2084.158691 2735.195068,2085.796631 2735.502686,2088.888916 C2735.604736,2089.914307 2737.793457,2091.650879 2738.776367,2091.492920 C2741.460205,2091.062500 2742.424316,2089.119141 2740.079834,2085.552002 M2825.324219,1817.397949 C2824.541748,1820.702271 2826.162109,1822.312134 2829.203369,1821.821533 C2830.170898,1821.665405 2830.801270,1819.417480 2831.585938,1818.126709 C2829.809082,1817.502441 2828.032471,1816.878174 2825.324219,1817.397949 M2711.660400,2022.138428 C2712.881348,2023.338745 2714.102051,2024.539062 2716.779053,2027.170898 C2715.021973,2020.379028 2715.021973,2020.379028 2711.660400,2022.138428 M2804.894775,2061.673584 C2801.946289,2062.204590 2800.770020,2063.999756 2802.362061,2066.521973 C2802.953857,2067.459229 2805.528076,2068.200684 2806.430176,2067.685547 C2808.991455,2066.223633 2808.815674,2064.060303 2804.894775,2061.673584 z"/>
  <path fill="#FEFEFE" opacity="1.000000" stroke="none" d=" M2412.782227,1677.665649 C2403.603760,1676.880127 2397.780518,1671.673096 2393.314453,1665.464966 C2382.651123,1650.642944 2372.427734,1635.491577 2362.455322,1620.194214 C2360.003906,1616.433838 2359.372803,1611.527588 2357.575439,1607.287842 C2356.060059,1603.712891 2354.962402,1599.010010 2352.132568,1597.105835 C2338.976074,1588.252319 2331.421631,1574.803711 2322.261230,1562.657227 C2316.064941,1554.441406 2310.108398,1546.040649 2303.753662,1537.951172 C2301.757568,1535.410278 2299.062012,1533.184326 2296.252686,1531.568726 C2291.319824,1528.731934 2287.716309,1531.215698 2288.397217,1536.929565 C2288.943848,1541.517944 2289.959961,1546.073120 2291.072998,1550.567505 C2300.244141,1587.596436 2309.599609,1624.580200 2318.614502,1661.646973 C2320.485840,1669.342285 2320.975098,1677.363403 2322.467041,1685.164551 C2323.741211,1691.828125 2320.965576,1695.709595 2315.226074,1698.661133 C2299.754150,1706.617676 2283.372803,1711.979980 2266.518311,1715.869019 C2257.833984,1717.872803 2248.965820,1719.531738 2240.096436,1720.165039 C2229.408691,1720.928101 2228.125977,1719.885254 2225.145020,1709.732788 C2216.077637,1678.852539 2206.902344,1647.993774 2198.536621,1616.919922 C2175.249023,1530.419067 2152.262695,1443.836670 2129.344482,1357.237061 C2121.706299,1328.374146 2114.619873,1299.364990 2107.329834,1270.410522 C2106.603027,1267.523193 2105.927002,1264.570068 2105.723877,1261.613525 C2104.884277,1249.387451 2107.908447,1245.062012 2119.978271,1241.766113 C2159.340820,1231.017212 2198.819092,1220.681152 2238.084229,1209.589233 C2256.213623,1204.467896 2274.158691,1205.244873 2292.298828,1208.284302 C2308.459961,1210.992065 2323.840332,1216.036987 2338.285645,1223.878540 C2347.735107,1229.008301 2348.497559,1230.202637 2346.657715,1241.215332 C2345.841797,1246.099487 2346.455811,1250.626831 2349.545654,1254.423706 C2355.683105,1261.965820 2362.384521,1269.104004 2372.287109,1271.411865 C2377.010986,1272.512939 2379.711426,1275.296143 2382.174805,1278.951294 C2388.618164,1288.512817 2391.565430,1299.432251 2394.475586,1310.359497 C2400.454346,1332.810303 2406.255371,1355.308228 2406.323975,1378.773438 C2406.400146,1404.810913 2399.912354,1429.327759 2388.851807,1452.747803 C2387.573730,1455.453979 2386.216309,1458.122803 2384.483643,1461.646484 C2394.362549,1473.590942 2404.526611,1485.810791 2414.615234,1498.092529 C2434.215820,1521.953979 2453.833496,1545.802124 2473.293701,1569.777832 C2476.624756,1573.882080 2479.378662,1578.490723 2482.104004,1583.043091 C2487.644043,1592.296753 2488.367920,1602.209351 2483.349854,1611.625732 C2472.518311,1631.951172 2460.089844,1651.293579 2442.608643,1666.674438 C2434.487549,1673.819580 2425.074951,1678.770752 2412.782227,1677.665649 M2234.027344,1347.592773 C2230.501221,1356.463623 2233.561768,1364.200317 2237.436279,1372.232666 C2242.156250,1382.017578 2246.333984,1392.132690 2249.842773,1402.413452 C2253.148682,1412.099731 2255.169678,1422.218262 2257.987305,1432.080566 C2259.033447,1435.742188 2260.738770,1439.215576 2262.370850,1443.351929 C2269.511230,1439.440918 2275.812500,1436.434082 2281.647217,1432.699097 C2292.972168,1425.449585 2299.273438,1414.802124 2300.194580,1401.438477 C2301.263916,1385.924438 2298.002930,1371.161255 2290.963867,1357.245850 C2281.778076,1339.087158 2264.991943,1334.440063 2247.500244,1336.715820 C2241.767578,1337.461548 2236.574707,1339.806152 2234.027344,1347.592773 M2315.526367,1224.141968 C2315.939697,1218.592407 2312.570801,1217.291870 2307.999756,1217.658691 C2303.561279,1218.014771 2299.358643,1219.190674 2297.798340,1224.020508 C2296.522949,1227.968262 2298.943848,1231.174683 2303.174316,1231.706665 C2308.509766,1232.377563 2311.805420,1229.179321 2315.526367,1224.141968 M2247.336182,1467.202026 C2248.500732,1468.237183 2249.898682,1470.305786 2250.783936,1470.105713 C2253.071777,1469.588623 2256.337646,1468.505981 2256.944580,1466.828369 C2257.543945,1465.171875 2255.908691,1461.477539 2254.240234,1460.596802 C2252.752441,1459.811157 2249.750000,1461.396484 2247.687500,1462.461670 C2246.942871,1462.846191 2246.987549,1464.759155 2247.336182,1467.202026 M2320.972168,1269.661865 C2324.410645,1271.035400 2328.276123,1271.047119 2329.269043,1267.298584 C2329.820801,1265.214233 2327.000977,1262.236816 2324.803467,1257.885620 C2322.046143,1262.651001 2315.721191,1262.869629 2320.972168,1269.661865 M2170.258545,1473.000732 C2171.082520,1476.752686 2173.655029,1479.659790 2177.072754,1477.643921 C2181.344238,1475.124634 2180.333252,1471.096069 2176.148926,1466.954224 C2174.243408,1468.469360 2172.357666,1469.968628 2170.258545,1473.000732 M2219.547119,1379.313354 C2220.411865,1380.802490 2221.276855,1382.291626 2222.141602,1383.780762 C2223.524414,1382.643311 2226.050781,1381.487671 2226.032959,1380.372437 C2226.003418,1378.498291 2224.355957,1376.650024 2223.388916,1374.790771 C2222.141602,1375.830688 2220.894043,1376.870605 2219.547119,1379.313354 M2239.857910,1282.614746 C2241.864990,1280.824829 2242.661865,1278.820557 2240.085693,1277.041382 C2239.314941,1276.509033 2237.228027,1276.575684 2236.730713,1277.179810 C2234.525146,1279.860107 2235.581543,1281.912720 2239.857910,1282.614746 M2270.704590,1587.150757 C2273.457275,1583.459351 2273.457275,1583.459351 2267.494873,1580.681641 C2268.462646,1583.081909 2269.108154,1584.683105 2270.704590,1587.150757 M2122.324219,1281.269287 C2124.290039,1283.240723 2126.501709,1283.428711 2127.908691,1281.027466 C2128.458984,1280.088257 2127.331787,1278.166382 2126.968750,1276.692017 C2125.286133,1277.677734 2123.603760,1278.663330 2122.324219,1281.269287 z"/>
  <path fill="#FEFEFE" opacity="1.000000" stroke="none" d=" M3401.599854,1928.485596 C3392.441895,1894.712646 3383.219727,1861.800781 3374.455078,1828.767456 C3357.776123,1765.906982 3341.325195,1702.985718 3324.886230,1640.061890 C3323.382324,1634.305054 3322.489014,1628.371216 3321.596680,1622.476562 C3320.363037,1614.328735 3321.092041,1612.831909 3328.215332,1609.190430 C3344.284180,1600.975952 3361.371338,1595.526855 3378.984131,1592.023926 C3389.005371,1590.031006 3399.291748,1589.019653 3409.508057,1588.444580 C3424.623779,1587.593872 3428.307617,1596.792603 3424.402100,1609.966064 C3424.212891,1610.604126 3424.067871,1611.264771 3423.797607,1611.867920 C3417.123291,1626.749512 3418.342285,1632.442627 3431.141113,1641.328491 C3441.148438,1648.276123 3444.302734,1658.594727 3445.500244,1669.626831 C3446.316162,1677.141724 3445.700439,1684.602905 3442.613281,1692.069336 C3437.119873,1705.354980 3440.963867,1714.503540 3453.874268,1721.942017 C3461.212402,1726.169922 3463.055176,1733.815552 3466.039062,1740.734619 C3467.662842,1744.499390 3468.738037,1748.500732 3471.355225,1752.081909 C3471.680908,1747.264893 3471.739258,1742.410889 3472.398926,1737.640015 C3473.254395,1731.454712 3474.041504,1725.371582 3478.867432,1720.341675 C3484.357910,1714.619507 3484.127930,1706.906006 3483.539795,1699.571045 C3482.694336,1689.023193 3481.256348,1678.523438 3480.382324,1667.977417 C3479.637695,1658.993164 3482.158447,1651.059814 3488.271729,1644.104736 C3492.627930,1639.148682 3496.880615,1633.869873 3499.980225,1628.091675 C3505.613037,1617.591064 3504.583984,1611.630005 3496.353516,1602.988159 C3489.645264,1595.944458 3486.653809,1588.370483 3489.532959,1578.585449 C3491.278564,1572.653320 3495.006348,1568.913208 3499.893555,1565.825073 C3513.053467,1557.509155 3527.944580,1553.754395 3542.824707,1550.505371 C3556.388916,1547.543823 3570.274658,1546.053833 3584.019531,1543.920166 C3584.674805,1543.818359 3585.335938,1543.707642 3585.996582,1543.694580 C3607.106689,1543.275391 3607.497314,1549.468384 3605.335693,1564.634399 C3595.431152,1634.127686 3584.777588,1703.514160 3574.425293,1772.943848 C3573.747070,1777.492188 3573.338135,1782.080688 3572.771729,1786.925659 C3598.787354,1813.377075 3625.111572,1839.789429 3651.029785,1866.593994 C3676.917480,1893.366455 3702.398682,1920.531372 3728.432129,1947.917847 C3720.013916,1967.387085 3708.775879,1984.813599 3694.889160,2000.605591 C3686.305176,2010.367310 3677.562500,2019.979004 3665.471680,2025.510132 C3655.854980,2029.909546 3645.897949,2030.734497 3635.391846,2028.536743 C3626.859131,2026.751709 3621.101074,2021.436646 3616.003418,2015.316650 C3602.401367,1998.985962 3589.040771,1982.448608 3575.829102,1965.799438 C3555.384521,1940.036499 3535.171143,1914.090576 3514.771240,1888.291992 C3512.822021,1885.826416 3510.248291,1883.854492 3506.589355,1880.328247 C3505.854004,1891.372559 3508.928955,1899.761108 3510.999512,1908.142822 C3520.071045,1944.865234 3529.632568,1981.466431 3538.830078,2018.158203 C3541.398438,2028.404297 3543.330322,2038.810181 3545.492676,2048.858154 C3544.864014,2049.761230 3544.522461,2050.329346 3544.106934,2050.836914 C3541.116211,2054.491211 3535.553955,2049.739502 3532.135986,2055.321777 C3529.949707,2058.892578 3523.718994,2060.200684 3519.098877,2062.004883 C3514.790283,2063.687500 3510.275391,2064.975586 3505.744629,2065.932129 C3489.872803,2069.282715 3474.018311,2072.786377 3458.033691,2075.507080 C3446.314941,2077.501709 3439.396240,2072.322510 3436.184570,2060.205811 C3430.065186,2037.118286 3424.166748,2013.972168 3418.097412,1990.871216 C3412.700928,1970.330322 3407.197998,1949.817261 3401.599854,1928.485596 M3622.124756,1886.931519 C3619.130127,1882.875977 3614.997559,1880.765381 3610.187744,1882.037842 C3607.747314,1882.683472 3603.774414,1885.820312 3604.053711,1886.954712 C3605.000488,1890.800659 3606.994141,1894.731812 3609.623779,1897.718384 C3611.987793,1900.402954 3615.953125,1901.672729 3619.516846,1899.438110 C3623.665283,1896.836792 3624.877930,1893.020264 3622.124756,1886.931519 M3589.467041,1905.610229 C3591.665527,1903.430786 3593.864014,1901.251343 3596.108887,1899.025879 C3592.574707,1894.266724 3590.513916,1888.547485 3584.330811,1890.314453 C3580.026855,1891.544312 3579.329834,1896.152710 3579.668701,1900.330322 C3580.085205,1905.466553 3583.150146,1907.117798 3589.467041,1905.610229 M3419.309082,1868.183716 C3421.414307,1867.083008 3422.437500,1865.488892 3420.214355,1863.791382 C3416.615234,1861.043457 3413.360596,1861.564209 3410.601074,1865.050293 C3412.341309,1868.938843 3415.056396,1869.220947 3419.309082,1868.183716 M3415.578857,1705.271240 C3412.604980,1702.394653 3410.104492,1703.289551 3408.666992,1706.655029 C3408.256592,1707.615845 3409.373779,1710.120728 3410.430420,1710.657471 C3414.316406,1712.631348 3415.813232,1710.332520 3415.578857,1705.271240 M3648.694824,1971.720703 C3645.558350,1972.246826 3645.043213,1974.518799 3646.047119,1976.817017 C3646.399658,1977.624023 3649.157715,1978.279419 3650.122314,1977.746338 C3652.721924,1976.309814 3652.513672,1974.134399 3648.694824,1971.720703 z"/>
  <path fill="#FDFDFD" opacity="1.000000" stroke="none" d=" M2863.567871,1553.731689 C2846.445068,1560.035889 2829.611084,1563.215454 2812.077881,1562.360840 C2804.038574,1561.968994 2801.542725,1559.960205 2800.102051,1552.061523 C2798.890625,1545.419678 2801.039307,1539.625854 2804.654541,1534.222900 C2806.315430,1531.740845 2808.322754,1529.452759 2809.706299,1526.830444 C2812.811035,1520.945312 2812.748535,1514.837036 2807.617432,1510.377930 C2799.920166,1503.688721 2797.480225,1494.824707 2796.468750,1485.558350 C2794.491211,1467.443604 2793.101807,1449.260864 2791.687744,1431.089233 C2789.811279,1406.979370 2788.034912,1382.860718 2786.424316,1358.731812 C2785.319336,1342.175903 2784.562500,1325.596558 2783.661377,1309.027100 C2782.490723,1287.503296 2781.231201,1265.983521 2780.196289,1244.453247 C2779.223877,1224.220947 2778.488770,1203.977173 2777.664795,1183.737915 C2777.542969,1180.745117 2778.259521,1177.476562 2777.291260,1174.805664 C2774.417969,1166.878174 2778.154785,1162.460571 2784.241699,1158.307983 C2794.800293,1151.105103 2794.490479,1143.506348 2782.856445,1138.220337 C2777.772705,1135.910522 2775.674072,1132.506470 2774.482422,1128.064331 C2770.232422,1112.221558 2769.082275,1095.988892 2769.919678,1079.687012 C2770.085693,1076.455200 2772.139160,1072.184448 2774.709229,1070.461670 C2779.283203,1067.395386 2784.778564,1065.407715 2790.151855,1063.923828 C2794.330811,1062.770020 2798.449951,1063.706299 2801.999512,1067.252686 C2807.848389,1073.096436 2815.051025,1076.073486 2823.588379,1075.726929 C2830.684326,1075.438721 2835.624023,1072.595703 2837.887695,1065.674438 C2838.300537,1064.412720 2839.125977,1063.181519 2839.164551,1061.917969 C2839.528076,1050.001587 2847.024170,1045.508179 2857.474121,1043.246704 C2867.509521,1041.074951 2877.416260,1038.244995 2887.282471,1035.370728 C2899.059570,1031.939697 2908.706299,1035.437622 2915.183350,1045.211182 C2924.524658,1059.306763 2933.770752,1073.611084 2941.410400,1088.662231 C2967.890381,1140.829712 2993.821533,1193.278442 3019.651367,1245.772583 C3045.918457,1299.155151 3071.873779,1352.691528 3097.850098,1406.216553 C3107.422607,1425.941162 3116.657471,1445.829468 3126.061035,1465.636230 C3130.808838,1475.635864 3130.246826,1476.031494 3121.042480,1481.080200 C3103.188965,1490.872437 3083.833496,1497.049316 3064.061768,1501.625854 C3055.083252,1503.704224 3045.811768,1504.786621 3036.609375,1505.547363 C3028.395020,1506.226440 3021.597900,1502.251221 3016.839355,1495.843506 C3008.059570,1484.020508 3001.795654,1470.874390 2998.337158,1456.483032 C2998.031006,1455.208740 2998.350098,1453.325928 2997.581787,1452.690918 C2987.895508,1444.689819 2985.090576,1432.514160 2978.953613,1422.380127 C2977.241699,1419.553467 2975.664307,1416.645386 2973.775879,1413.337769 C2970.397461,1413.850952 2967.093506,1414.057129 2963.950684,1414.879028 C2945.335205,1419.746704 2926.757080,1424.759399 2908.164062,1429.713257 C2907.201904,1429.969482 2906.184570,1430.039917 2905.243896,1430.351074 C2891.902832,1434.763916 2890.722900,1436.472168 2891.830322,1450.417969 C2893.141846,1466.930786 2894.706055,1483.425171 2895.840088,1499.949585 C2896.386230,1507.909058 2896.124023,1515.921265 2896.362061,1523.905518 C2896.602539,1531.986938 2893.165771,1538.339233 2886.484619,1542.330811 C2879.397461,1546.565186 2871.739258,1549.843750 2863.567871,1553.731689 M2876.339844,1284.307251 C2877.666992,1300.143311 2878.956543,1315.982788 2880.356445,1331.812500 C2880.606689,1334.639893 2881.313477,1337.427002 2881.951660,1341.036499 C2899.736084,1337.660522 2916.355713,1334.157104 2932.861572,1327.914917 C2913.778320,1283.081665 2894.770020,1239.536987 2873.057617,1197.183716 C2872.361328,1206.942993 2871.938721,1216.458008 2872.450439,1225.922363 C2873.469727,1244.772583 2875.002686,1263.594849 2876.339844,1284.307251 M2912.584229,1370.826782 C2908.749756,1361.022461 2900.692871,1355.194702 2892.503662,1349.485718 C2888.332764,1346.578125 2884.165039,1346.726807 2880.975342,1350.588257 C2876.013428,1356.595093 2871.532959,1362.999634 2867.235352,1368.720581 C2870.703125,1376.412598 2876.689209,1378.324585 2882.346924,1379.420776 C2890.064453,1380.916138 2898.046875,1381.443359 2905.929199,1381.571899 C2912.964600,1381.686646 2913.300049,1380.777588 2912.584229,1370.826782 M2990.385986,1314.819092 C2988.081543,1307.716675 2986.329834,1306.113281 2982.275879,1308.724243 C2975.008789,1313.404907 2968.369873,1318.993774 2965.354980,1327.576294 C2963.908691,1331.693115 2965.931641,1334.245850 2970.042725,1333.099731 C2979.165039,1330.556763 2987.594727,1326.851685 2990.385986,1314.819092 M3009.888184,1347.645996 C3007.975098,1345.386963 3006.439697,1342.476685 3004.027832,1341.077026 C3002.130859,1339.976318 2998.201660,1339.682373 2996.853271,1340.895386 C2994.074707,1343.394409 2991.523193,1346.891113 2990.534668,1350.438965 C2989.395264,1354.527954 2989.826416,1359.208740 2995.376709,1361.374268 C3000.753906,1358.023682 3008.754395,1357.630249 3009.888184,1347.645996 M2826.807617,1265.395142 C2825.371826,1266.494263 2823.935791,1267.593262 2822.416992,1268.755859 C2827.140869,1274.073364 2832.235840,1275.593750 2838.562988,1273.329224 C2838.359619,1265.856934 2833.787354,1264.564087 2826.807617,1265.395142 M3083.078369,1453.745972 C3085.417725,1451.936768 3087.757080,1450.127686 3090.096436,1448.318481 C3082.994385,1446.650269 3077.638184,1448.381958 3071.304443,1454.090942 C3076.146484,1454.090942 3078.958740,1454.090942 3083.078369,1453.745972 M3011.107422,1382.342407 C3012.270996,1382.925293 3013.529297,1384.113647 3014.576416,1383.950317 C3016.167969,1383.702026 3017.612793,1382.515747 3019.120117,1381.728027 C3018.027344,1380.373291 3017.161865,1378.203613 3015.797852,1377.823364 C3012.345459,1376.861572 3008.668945,1376.703369 3002.974609,1375.941040 C3006.414307,1378.758911 3008.135986,1380.169556 3011.107422,1382.342407 M2894.277832,1154.109497 C2895.590088,1152.959106 2896.902344,1151.808838 2898.434570,1150.465698 C2891.863281,1146.991211 2888.886719,1146.859863 2888.083984,1149.937012 C2887.104492,1153.691162 2890.061768,1154.093994 2894.277832,1154.109497 M2824.360596,1468.617676 C2825.326416,1467.355103 2826.292480,1466.092651 2827.754395,1464.181885 C2821.126465,1465.023193 2821.126465,1465.023193 2824.360596,1468.617676 z"/>
  <path fill="#FEFEFE" opacity="1.000000" stroke="none" d=" M2478.811523,1375.155151 C2461.374268,1307.879272 2444.264648,1241.359375 2427.146484,1174.841431 C2426.898682,1173.878052 2426.465088,1172.957764 2426.264404,1171.987305 C2424.336670,1162.660889 2426.886963,1158.285767 2436.000977,1155.753052 C2454.535400,1150.602417 2473.073486,1145.460327 2491.658203,1140.494873 C2528.197510,1130.732544 2564.763428,1121.068970 2601.337891,1111.438721 C2605.172363,1110.428955 2609.134521,1109.896240 2613.043701,1109.177368 C2624.982422,1106.982178 2631.312500,1109.939331 2636.047607,1121.042847 C2639.946777,1130.186279 2643.444580,1139.555542 2646.337891,1149.062744 C2653.405762,1172.287354 2659.569824,1195.725708 2658.338623,1220.372925 C2658.240479,1222.333984 2658.107178,1224.293213 2657.966309,1226.655396 C2625.532471,1236.403076 2592.517334,1243.528687 2559.552734,1254.790283 C2565.045410,1276.978882 2570.348145,1298.399902 2575.970215,1321.109985 C2585.203125,1318.890991 2593.488281,1316.956421 2601.743896,1314.901489 C2611.717041,1312.418823 2621.660400,1309.815918 2631.627930,1307.310425 C2633.550049,1306.827148 2635.512451,1306.457764 2637.477295,1306.197144 C2650.575439,1304.459961 2652.180664,1305.164185 2657.275635,1317.064819 C2664.895996,1334.863403 2669.134277,1353.567871 2671.649658,1372.724243 C2672.293213,1377.625488 2673.680664,1382.439453 2674.882812,1387.254517 C2677.071777,1396.022095 2675.637939,1400.541138 2667.346924,1404.301025 C2658.934326,1408.115845 2650.043701,1410.943237 2641.227051,1413.782715 C2630.531982,1417.226929 2619.695312,1420.230469 2609.448486,1423.268066 C2607.510742,1436.336914 2615.529541,1473.908203 2623.392822,1489.034912 C2630.383057,1487.648438 2637.825195,1486.434692 2645.135498,1484.673584 C2668.028809,1479.158325 2690.919678,1473.617798 2713.706787,1467.685181 C2720.555176,1465.902100 2725.513916,1467.570679 2728.844971,1473.420776 C2733.089600,1480.875122 2737.806396,1488.263794 2740.653076,1496.273071 C2749.115967,1520.084961 2755.783447,1544.409912 2756.296875,1569.940918 C2756.497314,1579.921997 2755.879395,1581.013916 2746.138672,1584.287476 C2711.528076,1595.918823 2676.593506,1606.390991 2640.526123,1612.651123 C2635.938965,1613.447266 2631.514893,1613.705200 2626.805908,1615.855957 C2607.447510,1624.697510 2587.109619,1631.012939 2565.665527,1632.221191 C2553.424316,1632.910889 2549.667969,1630.455322 2545.413086,1618.793823 C2541.214844,1607.286865 2537.891846,1595.432251 2534.697510,1583.591797 C2516.465332,1516.006470 2498.385254,1448.380005 2480.262451,1380.765137 C2479.832764,1379.161865 2479.510742,1377.529907 2478.811523,1375.155151 M2596.777588,1365.720093 C2601.787354,1361.209961 2600.838623,1355.517456 2599.572021,1349.991577 C2598.520752,1345.404785 2595.246338,1343.668091 2590.542969,1344.349609 C2582.595215,1345.501465 2575.848877,1349.760742 2575.665771,1353.955933 C2575.637207,1354.607544 2575.752441,1355.278687 2575.889404,1355.921997 C2577.881592,1365.279175 2585.807617,1369.595825 2596.777588,1365.720093 M2489.947998,1284.248047 C2494.410156,1272.287476 2491.968750,1268.245972 2478.225342,1264.842407 C2473.105957,1272.197021 2472.161133,1278.112793 2475.714600,1282.670410 C2479.278809,1287.241577 2483.919434,1287.581421 2489.947998,1284.248047 M2510.910889,1169.297241 C2514.257324,1167.979492 2517.095703,1166.211304 2514.702148,1162.105835 C2514.068604,1161.019165 2511.569580,1159.761230 2510.888672,1160.172729 C2507.407959,1162.276367 2507.221924,1165.241455 2510.910889,1169.297241 M2468.447510,1160.545898 C2468.211426,1157.813965 2467.975342,1155.082031 2467.682373,1151.689453 C2461.657471,1157.187256 2461.104736,1159.425659 2464.625732,1163.060669 C2465.073486,1163.522827 2467.032959,1162.520874 2468.447510,1160.545898 M2573.412842,1451.966064 C2574.686768,1452.423584 2575.960938,1452.881104 2577.234863,1453.338501 C2576.961914,1451.941772 2577.161621,1450.031006 2576.317627,1449.254639 C2574.531494,1447.611694 2572.904785,1448.132080 2573.412842,1451.966064 M2467.193604,1187.449097 C2465.031250,1189.520386 2465.327393,1191.567017 2467.860107,1192.736816 C2468.757568,1193.151245 2471.007812,1192.335449 2471.588867,1191.416504 C2473.315186,1188.685547 2470.979736,1187.546753 2467.193604,1187.449097 z"/>
  <path fill="#FEFEFE" opacity="1.000000" stroke="none" d=" M3192.823730,1951.054688 C3200.178711,1963.076050 3208.012695,1973.675293 3218.358887,1982.403809 C3230.173340,1992.370605 3244.063721,1994.708740 3258.547363,1993.393311 C3267.684326,1992.563354 3276.737061,1989.860962 3285.603027,1987.239136 C3295.738525,1984.241699 3303.909912,1978.152588 3310.231201,1969.501343 C3315.645264,1962.091553 3320.355469,1961.343140 3326.722168,1967.448242 C3346.316406,1986.236694 3363.273193,2007.042480 3373.461426,2032.580933 C3375.410889,2037.467773 3376.627197,2042.718262 3377.602051,2047.909912 C3381.013916,2066.082031 3373.821289,2080.750977 3360.811035,2092.444824 C3334.351807,2116.226562 3303.025879,2129.831543 3267.781494,2134.294678 C3224.160400,2139.818359 3186.773926,2125.270020 3153.571533,2098.036377 C3130.018066,2078.717041 3113.505127,2053.826416 3098.985352,2027.467163 C3079.437744,1991.979858 3066.927490,1954.017822 3058.115479,1914.561157 C3051.940674,1886.912842 3047.166260,1859.248291 3047.653809,1830.840576 C3047.744385,1825.552734 3047.223877,1820.378052 3052.578125,1816.559570 C3055.839844,1814.233398 3055.045410,1809.990112 3052.040527,1807.942139 C3047.039795,1804.533813 3047.762939,1799.680298 3048.490479,1795.424194 C3054.126465,1762.457764 3062.821289,1730.423340 3082.239746,1702.561768 C3108.654297,1664.661743 3145.654053,1645.471924 3191.412109,1641.453247 C3206.851807,1640.097290 3221.884766,1640.728516 3236.702148,1644.535522 C3254.223633,1649.037231 3267.537842,1658.679077 3271.544678,1677.598145 C3274.814941,1693.037476 3274.349365,1708.782959 3273.306396,1724.318115 C3272.559326,1735.445801 3269.783447,1746.545776 3266.837158,1757.364990 C3265.614746,1761.853882 3262.043945,1766.011719 3258.706299,1769.527954 C3255.476562,1772.930298 3251.188232,1774.031128 3245.992676,1772.991455 C3235.646240,1770.920776 3225.243164,1768.145996 3214.498291,1770.907959 C3192.076904,1776.671265 3177.254883,1790.638794 3169.830078,1812.415771 C3162.786133,1833.075562 3163.811279,1854.214600 3166.973145,1875.344482 C3170.943848,1901.880005 3179.730225,1926.838623 3192.823730,1951.054688 M3220.386475,2117.213623 C3219.269043,2112.883545 3216.671387,2111.019043 3212.489014,2113.202148 C3209.993896,2114.504395 3208.325928,2117.087891 3210.462158,2119.696289 C3213.258301,2123.110840 3216.632568,2122.882812 3219.692871,2119.649170 C3219.914062,2119.415527 3220.046631,2119.098389 3220.386475,2117.213623 M3221.670166,2047.097412 C3218.594971,2044.457153 3215.914551,2045.769409 3214.289307,2048.556396 C3212.521973,2051.586914 3213.574707,2054.164307 3218.416992,2055.540771 C3219.621826,2053.355957 3220.937012,2050.970947 3221.670166,2047.097412 z"/>
  <path fill="#FDFDFD" opacity="1.000000" stroke="none" d=" M1034.178223,1405.310303 C1030.137207,1429.656860 1017.729614,1448.774780 1002.839050,1466.487671 C997.742798,1472.549927 991.801941,1477.927246 986.036865,1483.395996 C978.466187,1490.577637 969.602661,1491.318359 960.156433,1487.812012 C955.180908,1485.965210 950.293274,1483.883423 945.350464,1481.947021 C936.891235,1478.632935 928.988342,1480.248413 921.718872,1485.138306 C918.437622,1487.345459 915.678284,1490.316650 912.609863,1492.853882 C901.182434,1502.302612 896.856262,1513.582886 902.177002,1528.206665 C905.725403,1537.959229 906.182007,1548.343384 905.658508,1558.691895 C904.902405,1573.636353 895.059387,1584.293335 881.704102,1584.212769 C878.358093,1584.192627 875.020874,1582.714844 870.524719,1581.627686 C878.688232,1570.980225 875.231323,1560.929810 872.655090,1551.052124 C869.533936,1539.084961 864.793274,1527.711304 857.583557,1517.603882 C852.129150,1509.957275 851.033081,1501.895996 853.460022,1493.057739 C857.409241,1478.674683 861.782959,1464.385132 865.075378,1449.851807 C867.920898,1437.291626 870.164307,1424.513550 871.465820,1411.708862 C872.674927,1399.812866 868.788330,1388.777100 862.058777,1378.845337 C850.618896,1361.961548 841.391418,1344.196167 837.001648,1323.958008 C830.038147,1291.854614 834.286011,1261.936646 852.594360,1234.435547 C859.958435,1223.373901 868.315063,1212.956909 875.390076,1201.723877 C881.012512,1192.797119 886.065430,1183.364624 890.127686,1173.637329 C896.062195,1159.426880 894.631958,1144.953613 888.183594,1131.164795 C882.135132,1118.231323 875.487000,1105.579346 869.171082,1092.769653 C860.917725,1076.030762 854.223206,1058.682983 851.014587,1040.259277 C847.371338,1019.340332 849.551941,999.225647 861.315735,980.843689 C867.940613,970.491821 874.986267,960.344238 880.726318,949.513123 C884.808533,941.810303 887.028015,933.120422 889.934387,925.261292 C892.980774,929.519531 893.783630,935.651245 893.647278,941.954407 C893.281006,958.887939 893.041199,975.830078 892.285400,992.747986 C891.080627,1019.714539 899.328369,1043.475464 914.367676,1065.669556 C925.717590,1082.419189 936.220032,1099.837280 945.846741,1117.635620 C956.844055,1137.967896 963.288696,1160.031494 964.236084,1183.246460 C965.197998,1206.818115 965.163940,1230.429321 965.696289,1254.020264 C966.092896,1271.595947 966.995300,1289.073730 971.458313,1306.276245 C977.096619,1328.008789 988.920410,1344.770996 1008.554504,1355.854126 C1020.230042,1362.444824 1029.724365,1371.154541 1032.922852,1384.604126 C1034.434204,1390.959961 1033.916260,1397.798340 1034.178223,1405.310303 z"/>
  <path fill="#FDFDFD" opacity="1.000000" stroke="none" d=" M2045.854492,2762.145508 C2107.650391,2861.279541 2169.165283,2959.744629 2231.786865,3059.981201 C2214.064697,3056.982666 2198.773438,3054.525879 2183.536133,3051.770020 C2173.951416,3050.036377 2166.789062,3044.010986 2160.153320,3037.375488 C2155.453125,3032.675537 2151.140625,3027.582520 2146.366699,3022.962646 C2135.868408,3012.803467 2123.823975,3013.681152 2114.684570,3025.130859 C2107.333740,3034.340088 2105.460693,3045.446289 2103.662842,3056.662109 C2100.628906,3075.590576 2103.724609,3094.262451 2105.470215,3113.003906 C2100.480225,3108.802246 1923.519897,2803.605469 1915.751099,2785.721436 C1928.579224,2770.177490 1929.909302,2752.391113 1924.993530,2733.435059 C1922.163818,2722.523193 1919.222656,2711.604492 1917.211060,2700.529053 C1915.919189,2693.416016 1915.462524,2685.957764 1915.974365,2678.749756 C1917.093750,2662.986328 1930.516235,2652.001221 1946.174927,2653.942627 C1951.990601,2654.663574 1958.040771,2656.303223 1963.195801,2659.019531 C1979.202026,2667.453125 1993.511841,2677.930908 2003.237549,2693.892822 C2017.068359,2716.591797 2031.435669,2738.964355 2045.854492,2762.145508 z"/>
  <path fill="#FDFDFD" opacity="1.000000" stroke="none" d=" M1808.859863,2383.108398 C1832.462646,2420.759033 1855.640625,2457.819092 1879.315430,2495.673340 C1868.164673,2495.673340 1858.587280,2495.079346 1849.107178,2495.787842 C1823.584717,2497.695068 1802.946655,2508.095459 1791.877808,2532.390381 C1788.788452,2539.170654 1788.119751,2547.055420 1786.354004,2554.436523 C1786.087524,2555.550537 1785.893921,2556.681885 1785.148682,2560.364502 C1703.955566,2419.405029 1623.964722,2280.532227 1543.666260,2141.125732 C1558.703003,2129.595947 1574.880493,2122.316162 1593.491943,2128.647705 C1602.307251,2131.646729 1611.162354,2137.142090 1617.663574,2143.790527 C1631.571899,2158.014404 1647.659546,2162.486816 1666.616455,2159.577881 C1667.244385,2159.481689 1667.921631,2159.707520 1669.405029,2159.878906 C1678.293213,2174.022949 1687.480591,2188.588135 1696.613770,2203.187256 C1733.449219,2262.067383 1770.269043,2320.958008 1807.083008,2379.851562 C1807.609009,2380.693115 1807.987793,2381.626953 1808.859863,2383.108398 z"/>
  <path fill="#FDFDFD" opacity="1.000000" stroke="none" d=" M1497.505127,1884.482178 C1501.844238,1891.520630 1505.793213,1897.945190 1510.363403,1905.380371 C1489.416382,1904.285034 1471.268311,1900.440063 1456.742554,1885.528320 C1448.431152,1876.996216 1439.423584,1868.902466 1429.738647,1862.001465 C1412.756714,1849.900635 1400.415161,1849.226440 1380.490967,1857.569214 C1377.359131,1852.272095 1374.113403,1846.914429 1370.992798,1841.484863 C1318.508667,1750.162720 1266.044312,1658.829224 1213.558716,1567.508057 C1210.081299,1561.457886 1206.722290,1555.315186 1202.842529,1549.527710 C1199.487671,1544.523071 1198.991821,1539.758789 1200.013062,1533.722046 C1202.162231,1521.017456 1203.463013,1508.113892 1204.205566,1495.239746 C1205.268433,1476.810913 1210.717041,1460.306396 1222.909180,1444.929199 C1314.705811,1591.874146 1405.910400,1737.871216 1497.505127,1884.482178 z"/>
  <path fill="#FBFBFB" opacity="1.000000" stroke="none" d=" M1027.696411,1132.282471 C1066.212646,1193.996338 1104.316895,1255.118164 1142.557617,1316.459229 C1117.883789,1332.522583 1110.911377,1356.708008 1109.215088,1383.418457 C1104.089600,1378.694580 992.647644,1186.552002 988.489807,1175.189209 C991.997620,1175.189209 995.608459,1175.746216 998.984497,1175.091919 C1013.010376,1172.373901 1019.979797,1163.773926 1020.294678,1149.244995 C1020.402832,1144.253906 1020.506592,1139.239380 1020.154846,1134.267944 C1019.814636,1129.460327 1018.885559,1124.694336 1019.258972,1119.446899 C1021.934082,1123.528076 1024.609253,1127.609253 1027.696411,1132.282471 z"/>
  <path fill="#FBFBFB" opacity="1.000000" stroke="none" d=" M1295.630981,1518.243896 C1310.196045,1507.945679 1324.106934,1497.742432 1335.722412,1484.757690 C1343.088989,1476.522827 1349.470215,1467.679565 1352.163330,1456.692749 C1355.479126,1443.165527 1351.258301,1433.516113 1338.511841,1427.164795 C1328.926758,1422.388672 1318.605957,1420.008057 1307.835327,1419.637451 C1304.259033,1419.514526 1300.701172,1418.858398 1294.758057,1418.171021 C1309.513794,1406.859497 1323.279541,1399.415894 1339.937500,1397.533813 C1361.858032,1395.057251 1378.982788,1403.327148 1391.396118,1420.737305 C1400.707031,1433.796143 1399.771973,1449.068848 1396.795288,1464.007080 C1393.311157,1481.492432 1385.235352,1497.154785 1376.550293,1512.542358 C1364.410034,1534.051758 1349.555786,1553.557251 1332.472778,1573.348999 C1319.191040,1555.348145 1307.224243,1537.256958 1295.630981,1518.243896 z"/>
  <path fill="#FAFAFA" opacity="1.000000" stroke="none" d=" M723.635620,648.358093 C725.648071,650.629456 728.030945,652.669006 729.619080,655.205994 C774.227417,726.464722 818.680054,797.821106 863.405151,869.006287 C868.249023,876.715881 870.496033,884.525818 869.721008,893.456665 C869.148682,900.052368 867.379089,905.933411 861.018188,909.187988 C856.282593,911.611023 854.233459,915.702148 854.441956,920.573486 C854.818848,929.380066 855.801147,938.160828 856.639282,948.261414 C823.528870,890.795227 790.805725,834.001221 758.083862,777.209412 C758.809570,776.764404 759.367188,776.130005 759.775208,776.214844 C770.871399,778.522278 775.521790,774.577026 772.066284,764.134766 C766.763733,748.110962 760.610168,732.321899 753.951843,716.804749 C744.275452,694.254089 733.828552,672.034058 723.725098,648.962646 C723.740051,648.252197 723.635620,648.358093 723.635620,648.358093 z"/>
  <path fill="#FAFAFA" opacity="1.000000" stroke="none" d=" M982.388367,963.458618 C996.098389,970.733459 1006.770935,980.285522 1011.556885,994.449280 C1017.495728,1012.024841 1015.337585,1029.258301 1005.363525,1045.068848 C1001.662048,1050.936279 997.519165,1056.698242 992.700989,1061.656494 C976.261108,1078.574585 972.215942,1098.115479 978.972961,1120.340332 C979.499939,1122.073486 979.621338,1123.930176 978.274292,1126.821289 C974.608337,1122.758057 970.655701,1118.914795 967.336121,1114.586060 C960.419678,1105.566772 955.083984,1095.915771 953.296875,1084.260254 C951.823303,1074.648682 954.408630,1065.986938 956.693420,1057.078613 C958.579346,1049.725342 961.453796,1042.454590 962.111938,1034.990601 C963.816895,1015.654053 953.910767,1000.567078 942.009033,986.770386 C936.610596,980.512512 930.111938,975.192871 924.024353,969.542480 C903.781921,950.753723 899.558289,927.341919 904.019409,899.754578 C905.275574,901.818176 905.935425,902.598389 906.272034,903.499329 C916.101624,929.810913 934.571716,947.037964 961.106628,955.870605 C968.016907,958.170776 974.854980,960.687805 982.388367,963.458618 z"/>
  <path fill="#FAFAFA" opacity="1.000000" stroke="none" d=" M1956.510498,2946.614014 C1956.871094,2945.429688 1957.356812,2944.909424 1958.051758,2943.891846 C1961.984863,2950.547119 1965.708496,2957.700195 1969.765869,2965.592773 C1970.099854,2966.332764 1970.233643,2966.462646 1970.233643,2966.462646 C1965.700928,2960.067871 1961.168335,2953.672852 1956.510498,2946.614014 z"/>
  <path fill="#FEFEFE" opacity="1.000000" stroke="none" d=" M1283.585205,1798.975342 C1284.904541,1799.846924 1285.713135,1800.809937 1286.481934,1802.650635 C1286.442139,1803.528320 1285.890625,1804.106079 1285.890625,1804.106079 C1285.104614,1803.152222 1284.318604,1802.198486 1283.212158,1800.666504 C1282.952637,1799.747803 1283.013550,1799.407349 1283.585205,1798.975342 z"/>
  <path fill="#FAFAFA" opacity="1.000000" stroke="none" d=" M722.986206,643.111572 C723.329651,644.410217 723.673157,645.708923 723.826111,647.682861 C723.635620,648.358093 723.740051,648.252197 723.790771,648.214355 C723.428894,646.977539 723.016296,645.778564 722.757568,643.920776 C722.911438,643.261902 722.986206,643.111572 722.986206,643.111572 z"/>
  <path fill="#FAFAFA" opacity="1.000000" stroke="none" d=" M1970.011963,2966.301758 C1969.923950,2966.270752 1970.289062,2966.248535 1970.289062,2966.248535 C1970.289062,2966.248535 1969.897583,2966.106689 1970.065674,2966.284668 C1970.233643,2966.462646 1970.099854,2966.332764 1970.011963,2966.301758 z"/>
  <path fill="#FEFEFE" opacity="1.000000" stroke="none" d=" M1287.437012,1806.568115 C1286.696045,1806.302246 1286.239502,1805.753052 1285.836792,1804.655029 C1285.890625,1804.106079 1286.442139,1803.528320 1286.728760,1803.244873 C1287.441040,1803.520264 1287.866699,1804.079224 1288.290894,1805.177490 C1288.289429,1805.716675 1287.721313,1806.284546 1287.437012,1806.568115 z"/>
  <path fill="#FAFAFA" opacity="1.000000" stroke="none" d=" M858.938599,950.726746 C859.053894,950.624390 858.823242,950.829102 858.938599,950.726746 z"/>
  <path fill="#FAFAFA" opacity="1.000000" stroke="none" d=" M722.986816,643.223511 C722.652283,643.320435 722.242432,643.455750 721.832642,643.591064 C721.981934,643.597717 722.131287,643.604309 722.633423,643.361267 C722.986206,643.111572 722.911438,643.261902 722.986816,643.223511 z"/>
  <path fill="#0D0D0D" opacity="1.000000" stroke="none" d=" M724.986938,2185.018799 C725.047974,2184.971436 724.925903,2185.066162 724.986938,2185.018799 z"/>
  <path fill="#080808" opacity="1.000000" stroke="none" d=" M898.933411,1924.708374 C899.052979,1924.599487 898.813843,1924.817261 898.933411,1924.708374 z"/>
  <path fill="#1A1A1A" opacity="1.000000" stroke="none" d=" M2331.802979,1826.230225 C2331.645264,1825.966187 2331.424805,1825.746216 2331.204346,1825.526367 C2331.418457,1825.566162 2331.632324,1825.606079 2331.741211,1826.016602 C2331.636230,1826.387207 2331.740234,1826.274414 2331.802979,1826.230225 z"/>
  <path fill="#FAFAFA" opacity="1.000000" stroke="none" d=" M836.224487,1984.263184 C825.251038,1981.701660 816.243958,1977.290039 808.309570,1970.233765 C801.236328,1963.943481 792.628662,1960.697144 782.934143,1960.175781 C777.386414,1959.877563 771.541321,1959.314941 766.467102,1957.281616 C757.495850,1953.686890 755.243164,1946.423584 759.960693,1937.796387 C767.908081,1923.262451 781.521545,1917.753784 797.024719,1916.436768 C812.860474,1915.091431 825.850647,1921.631226 837.599548,1931.957397 C851.403198,1944.089722 863.059753,1969.941162 863.202759,1987.291016 C854.282104,1988.249634 845.684082,1986.078125 836.224487,1984.263184 z"/>
  <path fill="#FAFAFA" opacity="1.000000" stroke="none" d=" M1952.527222,1834.689941 C1951.762085,1817.111572 1955.815186,1801.768066 1966.015869,1788.274414 C1967.206665,1786.699219 1968.418335,1785.075928 1969.895508,1783.791626 C1978.467651,1776.339111 1987.895630,1779.091309 1989.937988,1790.146240 C1993.430786,1809.051147 1988.689209,1826.326904 1976.331421,1840.833374 C1965.655029,1853.365723 1957.685669,1851.227295 1952.527222,1834.689941 z"/>
  <path fill="#FAFAFA" opacity="1.000000" stroke="none" d=" M1988.473633,1611.606201 C1973.870483,1605.339844 1967.546875,1594.103882 1969.746582,1579.669678 C1970.962524,1571.690430 1977.609741,1567.922119 1985.210815,1570.892212 C1995.683472,1574.984375 2003.745361,1591.215576 1999.195068,1604.779053 C1997.732666,1609.138184 1994.250732,1611.806274 1988.473633,1611.606201 z"/>
  <path fill="#FAFAFA" opacity="1.000000" stroke="none" d=" M2311.563477,1976.747803 C2305.817627,1972.205322 2299.989258,1968.691284 2295.753662,1963.798340 C2289.186523,1956.211426 2292.111328,1948.380615 2301.970215,1945.866699 C2317.443848,1941.921143 2331.323730,1947.192993 2344.551270,1954.421021 C2348.822510,1956.755127 2352.453125,1960.380615 2356.088867,1963.728271 C2360.405518,1967.702881 2361.765869,1972.949463 2359.417725,1978.228882 C2357.341553,1982.895874 2352.660645,1983.981079 2347.736328,1984.341675 C2335.182373,1985.260620 2323.402832,1982.713135 2311.563477,1976.747803 z"/>
  <path fill="#FAFAFA" opacity="1.000000" stroke="none" d=" M2514.650391,2158.013184 C2503.607910,2150.744873 2497.145752,2140.888428 2493.583740,2129.201660 C2492.266357,2124.878662 2491.697266,2120.060791 2492.039062,2115.563721 C2492.514160,2109.314697 2497.805176,2106.180908 2503.520020,2108.825928 C2507.915039,2110.860352 2512.154297,2113.837402 2515.558105,2117.287598 C2523.919189,2125.762207 2529.375000,2136.003418 2530.200684,2148.052979 C2530.941895,2158.869141 2526.107910,2161.985596 2514.650391,2158.013184 z"/>
</svg>