<?xml version="1.0" encoding="UTF-8"?><svg id="a" xmlns="http://www.w3.org/2000/svg" xmlns:xlink="http://www.w3.org/1999/xlink" viewBox="0 0 51.9999 58.8984">
<title>EmberGen-logo - brandlogos.net</title><defs><radialGradient id="b" cx="-500.2066" cy="766.8509" fx="-500.2066" fy="766.8509" r="1" gradientTransform="translate(-46456.3558 -4740.7136) rotate(128.959) scale(51.0544 -51.0547)" gradientUnits="userSpaceOnUse"><stop offset="0" stop-color="#de3f0d"/><stop offset="1" stop-color="#530006"/></radialGradient><radialGradient id="c" cx="-491.7297" cy="762.2485" fx="-491.7297" fy="762.2485" r="1" gradientTransform="translate(-42883.6154 15174.0359) rotate(100.78) scale(46.6172 -51.5942)" gradientUnits="userSpaceOnUse"><stop offset="0" stop-color="#ffa700"/><stop offset=".47" stop-color="#f47a02"/><stop offset="1" stop-color="#d80507"/></radialGradient><linearGradient id="d" x1="27.0061" y1="-19.1232" x2="16.0164" y2="-66.446" gradientTransform="translate(0 .2147) scale(1 -1)" gradientUnits="userSpaceOnUse"><stop offset="0" stop-color="#ffcb00"/><stop offset=".2986" stop-color="#ee9004"/><stop offset=".7412" stop-color="#dd3b36"/><stop offset=".8631" stop-color="#db1236"/></linearGradient><linearGradient id="e" x1="15.1271" y1="-17.2164" x2="11.9464" y2="-54.7519" gradientTransform="translate(0 .2147) scale(1 -1)" gradientUnits="userSpaceOnUse"><stop offset="0" stop-color="#ffdf58"/><stop offset=".377" stop-color="#efbb5d"/><stop offset=".673" stop-color="#eca362"/><stop offset="1" stop-color="#e65a6a"/></linearGradient></defs><path d="M26,58.8984c14.3593,0,25.9999-11.6403,25.9999-25.9993S40.3593,6.8999,26,6.8999,0,18.5401,0,32.8991s11.6406,25.9993,26,25.9993Z" style="fill:url(#b);"/><path d="M47.755,47.4442c-4.7317,6.8285-12.6411,11.3032-21.5994,11.3032-13.821,0-25.1452-10.6509-26.1556-24.1641C.8251,22.2164,10.3021,12.1907,22.4512,10.4718l3.7193-.2663c2.7587-.1532,6.1262-.6183,9.7192-1.8662,3.0145,1.2011,5.753,2.9436,8.0945,5.1066-1.4744,5.9711-5.3405,9.5399-10.0348,10.834,0,0,6.105,1.7492,10.7836-1.6201,0,0,.1322,8.8494-9.4866,10.15,0,0,1.5839,2.5621,5.5394,1.6931,0,0-1.145,4.5607-7.3006,5.2082-5.9805.6294-5.845,6.0496-5.8327,6.5405.0004.0142.0006.0242.0006.03,0,.2046.3967,6.1388,8.6989,6.1388,4.309.0204,8.4318-2.083,11.403-4.9762Z" style="isolation:isolate; opacity:.4;"/><path d="M44.7945.2072c.3807.9436,1.8671,4.9305,1.2541,8.3352-1.2541,6.9464-7.071,10.785-12.2105,12.2073,0,0,6.0744,1.7472,10.7296-1.6182,0,0,.1316,8.8391-9.4392,10.1383,0,0,1.576,2.559,5.5118,1.6911,0,0-1.1393,4.5553-7.2642,5.2021-6.1221.6468-5.8029,6.3585-5.8029,6.5629s.3946,6.1317,8.6554,6.1317c7.6561.0364,14.7216-6.6917,15.7266-12.5966l.0447-.28c-1.5676,12.9074-12.5745,22.9169-25.902,22.9169C11.6955,58.8979,0,47.2028,0,32.7947,0,19.6466,9.7416,8.7551,22.3973,6.9576l3.7006-.266c4.9716-.2772,11.9307-1.5763,18.6098-6.6916l.0868.2072Z" style="fill:url(#c); fill-rule:evenodd;"/><path d="M44.0408,51.756c-4.677,4.4265-10.996,7.142-17.9505,7.142C11.681,58.898,0,47.2407,0,32.8608c0-7.2293,2.9524-13.7706,7.7195-18.4883l.6237-.4601s5.7714-6.9206,23.0697-4.2989c0,0,.3317,9.0974-9.0272,15.8192,0,0,1.3828,2.2013,6.6609,2.2362,0,0-4.2776,4.9867-10.3494,4.6215,0,0,.9097,3.259,4.1507,3.2934,0,0-6.0971,2.9896-5.0188,9.3729.7071,4.1821,3.5808,10.8151,16.2165,11.0251,4.82.0801,8.394-2.951,9.6167-3.988.167-.1416.2901-.246.3666-.3002l.0119.0624Z" style="fill:url(#d);"/><path d="M0,34.6771c.9532,13.4134,11.96,24.0235,25.4684,24.2209l.001-.0578c-10.2016-.1712-15.8475-8.3959-15.9762-15.3814-.1709-8.9679,5.1691-12.1124,5.1691-12.1124,0,0-3.3828-.1208-3.291-5.6719.0918-5.554,6.1962-9.6199,6.1962-9.6199C8.2927,14.7603.1977,22.8811.0396,32.4453c-.0154.9319-.0285,1.664-.0396,2.2318Z" style="fill:url(#e);"/></svg>