<?xml version="1.0" encoding="utf-8"?>
<svg version="1.1" id="Layer_1" xmlns="http://www.w3.org/2000/svg" x="0px" y="0px" width="100%" viewBox="0 0 593 575" enable-background="new 0 0 593 575">
  <path fill="#FFB800" opacity="1.000000" stroke="none" d=" M292.915985,4.086185 C300.658569,4.067716 308.401123,4.049247 316.801544,4.437996 C329.306030,6.246387 341.374176,6.670434 352.943909,9.293182 C367.795044,12.659792 383.016846,14.926208 396.998627,21.817978 C404.877655,25.701632 413.737915,27.585640 421.644836,31.423752 C433.513672,37.185013 445.051544,43.664665 456.515930,50.213840 C472.824188,59.530167 486.965454,71.762405 500.196899,84.909088 C510.354004,95.001076 519.592468,106.021500 529.175415,116.686577 C542.079712,131.047958 552.663147,147.162689 561.298828,164.243057 C568.112671,177.719925 573.086792,192.250641 577.644043,206.702438 C580.840515,216.839188 582.056396,227.613342 583.964539,238.137695 C584.849731,243.019958 585.277405,247.985168 585.912476,252.912781 C585.928833,259.319031 585.945190,265.725281 585.927673,272.601166 C585.072327,271.955841 584.250793,270.840912 583.250183,269.482880 C582.814087,269.960602 582.151184,270.686676 580.558411,272.431335 C581.869141,265.620972 579.624268,261.143646 574.326843,258.445679 C574.130615,258.973511 573.871338,259.671021 573.193115,261.495667 C573.193115,258.147858 573.193115,255.935104 573.193115,253.366013 C572.135254,254.593948 571.341492,255.428146 570.659546,256.345428 C570.342285,256.772156 569.951782,257.714264 570.085449,257.823944 C574.660400,261.575531 571.546936,265.461029 569.869019,268.824677 C568.094360,272.382324 572.499512,274.830994 570.747192,278.185913 C570.278625,279.083008 574.214111,278.239014 572.452271,280.870300 C571.475220,282.329529 570.964478,284.100952 570.086792,286.086090 C569.539612,285.288849 568.991333,284.490112 568.350525,283.556427 C568.148315,286.715759 567.953552,289.758728 567.758789,292.801697 C567.065491,292.761444 566.372131,292.721191 565.678833,292.680939 C565.678833,290.829590 565.678833,288.978210 565.678833,286.027069 C564.541504,287.680695 563.998352,288.470367 562.855469,290.132050 C562.333130,287.834991 561.941528,286.112823 561.549866,284.390656 C562.042053,284.230194 562.534302,284.069733 563.026489,283.909271 C562.167358,283.140961 561.308228,282.372681 560.405396,281.565277 C560.099060,282.242065 559.783569,282.939148 559.506775,283.550659 C558.723267,281.809326 557.942139,280.073303 557.095764,278.192230 C554.931885,280.629608 553.007019,282.797791 550.680359,285.418488 C545.595337,273.687988 543.709473,261.251221 534.688782,252.628952 C534.261658,252.824417 533.834473,253.019897 533.407349,253.215378 C533.892212,254.918243 534.377075,256.621124 534.861938,258.323975 C534.454834,258.483704 534.047791,258.643433 533.640686,258.803162 C532.105042,254.300674 530.569336,249.798203 528.557617,243.899994 C528.557617,248.564743 528.557617,251.706100 528.557617,254.847458 C528.300537,254.920517 528.043457,254.993591 527.786377,255.066650 C526.605286,252.125366 525.424255,249.184082 524.378113,246.578796 C523.155212,246.410324 521.864563,246.232513 520.573914,246.054688 C520.935852,244.935425 521.591431,243.818634 521.600952,242.696411 C521.623230,240.049484 521.337646,237.399963 521.174988,234.725357 C521.971313,233.720932 523.394714,232.428696 524.074890,230.821854 C524.349854,230.172180 523.041016,228.809128 522.384277,227.816101 C520.401489,224.817780 517.730042,222.050217 516.683167,218.761047 C516.222595,217.314056 518.301453,214.888824 516.027405,213.066330 C515.677368,212.785797 515.625183,211.956375 515.292908,211.857056 C508.197113,209.736115 507.784363,202.411896 504.486267,197.484055 C500.936584,192.180298 498.821533,185.928879 491.649414,183.688751 C489.462036,183.646927 487.814301,183.323715 486.166595,183.000488 C485.794952,181.619827 485.344635,180.253708 485.085358,178.852264 C484.959106,178.169769 485.465668,177.300323 485.212585,176.722916 C483.871094,173.662415 482.379303,170.667801 481.091339,167.968430 C480.851044,168.282089 480.188690,169.146759 479.431488,170.135223 C473.749359,167.927261 478.058716,162.406464 475.912659,159.847778 C474.262207,159.317108 472.866241,159.178894 471.910187,158.457626 C471.208588,157.928345 471.083649,156.634674 470.493256,155.161545 C470.003540,155.478012 468.871124,156.209839 467.701050,156.965973 C464.656097,154.132751 461.610870,151.299255 458.565643,148.465775 C458.291077,148.742523 458.016479,149.019287 457.741913,149.296036 C461.304810,154.146454 464.867706,158.996857 468.855011,164.425034 C466.396545,164.881790 465.073547,167.372543 463.993500,163.148911 C463.548889,161.410080 462.547119,156.651016 458.165039,156.871338 C457.783966,156.890488 457.296021,156.163605 456.970886,155.703308 C453.335358,150.556137 449.722107,145.393280 445.642517,139.578583 C445.198730,141.029083 444.967743,141.783997 444.727234,142.570007 C441.076111,135.702957 435.473663,130.949631 429.518280,126.859077 C428.774170,125.931259 427.527161,124.111305 427.359344,124.205879 C422.991180,126.668098 422.524475,121.701279 420.208221,120.444542 C413.901825,117.022858 409.316223,110.363937 399.980042,110.448792 C401.647430,109.702255 402.321930,109.400269 402.996429,109.098274 C402.902710,108.749390 402.808990,108.400513 402.715271,108.051636 C401.530792,108.358772 400.353485,108.886841 399.160248,108.925713 C396.881927,108.999931 394.398987,109.335709 392.351288,108.594772 C388.007111,107.022842 383.858215,104.890533 379.687714,102.867500 C377.353027,101.734993 375.135254,100.361488 372.985626,99.163895 C373.373108,98.382530 374.019257,97.079620 374.680817,95.745636 C368.347076,93.583054 362.044525,91.431114 355.600281,89.230789 C355.011963,90.558525 354.334351,92.087883 354.014526,92.809723 C352.040436,92.693306 350.617493,92.609383 348.115967,92.461853 C349.979950,90.918175 351.223724,89.888138 353.655273,87.874428 C343.316040,86.500893 334.014496,85.108284 324.668762,84.143593 C322.561859,83.926109 320.038422,81.838005 317.799835,84.732124 C317.450409,85.183868 314.453064,82.969940 312.768433,83.103340 C298.223389,84.255020 283.700470,85.682793 269.167389,86.988510 C248.543732,88.841415 229.482559,96.157845 210.707352,104.157410 C197.315216,109.863396 185.485474,118.403687 173.716812,126.872139 C168.071838,130.934128 162.577927,135.275162 157.443176,139.958572 C151.745834,145.155121 146.193207,150.592438 141.180756,156.441803 C127.909866,171.928467 116.383263,188.652374 109.161217,207.854996 C104.705070,219.703400 100.788490,231.819138 97.648956,244.075958 C95.517586,252.396805 95.004715,261.153839 94.045059,269.746765 C93.191284,277.391510 92.666710,285.074982 92.107384,292.749451 C91.925751,295.241547 92.050850,297.760010 92.107933,300.264771 C92.435722,314.649231 93.978348,328.955505 98.178772,342.685760 C101.045120,352.055267 105.701141,360.870697 109.396416,369.998871 C110.098328,371.732788 110.047539,373.771423 110.344048,375.669464 C114.327835,374.845032 112.622978,378.247925 113.247543,379.757111 C115.593086,385.424957 117.742126,391.025513 122.013824,395.799255 C125.308891,399.481598 127.202988,404.384430 129.960770,408.586578 C139.860840,423.671722 151.835602,437.128052 165.601166,448.575073 C172.180908,454.046631 178.534943,460.544250 187.312027,463.376404 C189.546967,464.097534 190.385529,468.710693 192.678818,469.762238 C202.355118,474.199310 212.318375,478.017456 222.218872,481.955902 C226.970276,483.846008 231.815536,485.500153 236.990936,487.397797 C235.832565,487.828369 235.103729,488.099304 233.904221,488.545197 C234.971939,489.147644 235.871246,490.080780 236.434143,489.909363 C246.020401,486.989777 254.441299,493.110687 263.617615,493.346985 C266.545898,493.422363 269.436676,494.613739 272.373138,494.775208 C282.115265,495.310791 291.868408,495.683777 301.621948,495.946777 C304.003448,496.010986 306.402649,495.417145 308.793732,495.125854 C308.870575,495.528534 308.947418,495.931213 309.024292,496.333862 C307.078461,496.860748 305.132629,497.387634 302.317810,498.149811 C305.857452,498.762054 308.411621,499.203827 311.558228,499.748108 C313.523499,497.056213 316.445038,496.904724 317.904297,500.103241 C326.459534,495.310211 336.131073,495.697662 345.229889,493.607239 C345.576569,494.093719 345.923218,494.580200 346.269897,495.066711 C344.996246,495.549957 343.722565,496.033234 342.448914,496.516479 C342.733093,496.990326 343.017242,497.464172 343.301422,497.938019 C346.904541,497.320740 350.507660,496.703491 354.110779,496.086212 C354.032135,495.601044 353.953491,495.115845 353.874847,494.630646 C353.124176,494.705811 352.373474,494.781006 351.516815,494.866791 C352.224518,491.907104 364.374603,486.984467 369.656128,487.972168 C368.062500,488.713287 367.041687,489.188019 366.020844,489.662750 C366.063843,490.029358 366.106873,490.395966 366.149872,490.762543 C369.811890,490.361237 373.473907,489.959900 376.487823,489.629608 C377.753174,488.261505 379.168213,486.051178 379.711395,486.247925 C386.170319,488.587433 389.882935,481.788239 395.519592,481.656586 C395.656677,481.653351 395.762939,480.330170 395.969421,479.324158 C396.055237,479.025696 396.036316,479.090881 396.036316,479.090881 C402.570892,478.988556 407.556824,475.682556 412.206299,471.495697 C413.425201,470.398132 415.200348,469.935211 416.676117,469.102966 C421.126923,466.592896 426.045532,464.610596 429.838287,461.331329 C432.855835,458.722321 434.487610,454.510498 436.848541,450.832672 C431.632050,454.388031 426.958710,457.573242 422.285370,460.758423 C421.906158,460.100281 421.526947,459.442169 421.147736,458.784058 C424.028137,457.409576 427.280609,456.487488 429.672974,454.519684 C431.640564,452.901215 432.599976,450.049255 433.980255,447.728546 C434.501373,446.852325 441.421783,444.117462 442.511200,443.765259 C443.791687,443.351349 445.442474,442.441528 445.880249,441.331635 C448.490906,434.712830 448.388916,434.672607 452.675079,433.280731 C454.717926,429.681030 456.200836,427.068054 457.943726,423.997009 C456.441833,424.148193 455.295105,424.263611 453.849792,424.409088 C457.369843,420.528564 459.807953,415.706482 465.848267,415.844940 C466.000977,415.848450 466.286133,415.200043 466.312469,414.841248 C466.989838,405.610138 473.144806,398.782166 477.552155,391.491486 C483.660645,381.386810 488.026154,370.733948 491.984802,359.777863 C492.364075,358.728210 492.777374,357.690887 493.523560,355.732727 C493.869110,357.893921 494.068909,359.143494 494.291046,360.532867 C496.032166,356.822388 497.690216,353.289001 499.404999,349.634674 C497.909088,349.730072 496.952179,349.791107 495.995239,349.852142 C496.268860,348.752075 496.542511,347.652008 496.816223,346.551941 C497.711060,347.005707 498.605896,347.459473 499.838196,348.084351 C500.164795,339.561768 494.813843,331.610992 499.558197,323.155548 C499.432953,330.398346 502.434204,335.157501 508.359222,337.071899 C510.902954,332.201599 515.762085,327.921234 511.072021,321.549408 C511.373322,323.960693 511.674622,326.371979 511.975922,328.783264 C511.563934,328.871368 511.151917,328.959473 510.739929,329.047577 C510.488739,328.152252 510.127716,327.271576 510.006042,326.358978 C509.560913,323.020844 509.195557,319.672089 509.284058,316.783142 C510.578918,318.203430 511.389862,319.167908 512.200806,320.132416 C512.588989,319.733063 512.977112,319.333710 513.365295,318.934357 C512.269104,317.930756 511.172852,316.927185 510.076630,315.923584 C510.234802,315.038696 510.392944,314.153839 510.615936,312.906219 C509.729309,313.191528 509.009857,313.423065 508.157959,313.697205 C508.157959,308.685822 508.157959,303.717133 508.157959,297.624268 C510.477051,300.464478 511.838043,302.131287 513.199036,303.798096 C513.492981,303.681610 513.786926,303.565125 514.080872,303.448639 C513.410522,299.704681 512.740112,295.960754 512.069763,292.216797 C515.099365,294.609863 517.690247,296.671021 521.524109,296.033600 C522.252808,295.912476 523.728577,296.275665 523.754578,296.528839 C524.303284,301.872711 527.627808,297.538574 529.790100,298.332245 C531.858154,308.871704 531.931824,319.573242 530.025269,330.294647 C528.350891,339.710571 526.972534,349.203888 524.723267,358.483612 C523.336182,364.206390 520.427307,369.547363 518.523010,375.168610 C518.141052,376.296051 519.462830,377.900146 519.549194,379.311981 C519.659973,381.121887 519.315430,382.959625 519.152527,384.963501 C520.365173,384.500244 521.295837,384.144714 522.226501,383.789185 C522.182190,384.787598 522.341187,385.848236 522.058044,386.773529 C520.889709,390.590973 519.604004,394.373016 518.329285,398.157227 C517.203918,401.497742 516.035889,404.823914 514.886658,408.156403 C515.301270,408.448639 515.715881,408.740875 516.130493,409.033112 C518.609741,405.660339 521.401306,402.470032 523.501343,398.875702 C527.532043,391.977112 531.114075,384.817841 535.009888,377.837952 C536.020386,376.027496 537.503296,374.480774 539.328247,372.076447 C539.328247,376.658020 539.328247,380.217346 539.328247,383.850861 C540.209839,383.764587 541.040955,383.683228 541.872070,383.601898 C541.935547,383.813263 541.999084,384.024628 542.062561,384.235992 C541.139832,384.619751 540.217041,385.003479 538.912537,385.545959 C539.518250,386.769989 540.129456,388.005310 540.555237,389.692322 C540.310547,390.599915 540.251404,391.055847 540.192200,391.511749 C540.671570,391.252258 541.150879,390.992737 541.630249,390.733246 C541.921997,390.624268 542.213684,390.515320 542.505432,390.406342 C543.760925,398.701355 544.839844,406.695526 540.183105,414.768524 C538.198059,418.209930 539.086792,423.440033 539.089355,427.857086 C539.091492,431.670319 539.888794,435.479065 539.968567,439.297424 C540.056519,443.503540 537.583618,444.059479 533.725525,442.282166 C532.929443,441.692780 532.590515,441.538208 532.251648,441.383606 C532.474121,441.946960 532.696594,442.510315 532.919067,443.073669 C531.363647,446.797485 529.808289,450.521301 527.859741,455.186249 C531.435913,464.237366 522.414001,471.016418 520.335571,479.761627 C519.792358,479.758423 519.249207,479.755249 518.705994,479.752045 C518.480225,476.905853 518.254456,474.059662 518.052124,471.508240 C518.823792,470.542542 519.437134,469.775024 520.050415,469.007477 C518.266357,469.236908 522.347473,463.123779 517.824158,466.891693 C518.358459,464.459137 518.860046,462.175598 519.595459,458.827454 C516.479065,460.779297 514.285828,462.152924 512.069885,463.540802 C514.120911,465.291626 513.315613,468.543091 510.742188,468.938904 C509.692719,469.100311 508.576263,468.826202 507.344116,469.743530 C508.472839,469.918579 509.601532,470.093658 511.436188,470.378174 C509.882904,471.491882 508.944214,472.630066 507.798523,472.904755 C503.172424,474.013824 499.823242,478.710327 498.668610,483.595703 C498.159454,485.749847 494.808655,487.182312 492.880554,489.077332 C492.169342,489.776337 491.839233,490.863159 491.335327,491.773102 C491.705292,492.111023 492.075256,492.448944 492.445221,492.786865 C491.462494,492.699402 490.479797,492.611938 489.313049,492.508118 C484.868103,498.023499 480.246704,503.757812 474.963409,510.313385 C474.162201,507.972809 473.878326,507.143524 473.551392,506.188477 C472.495575,508.583099 471.478729,510.889404 470.461853,513.195679 C470.152191,513.084290 469.842499,512.972961 469.532837,512.861572 C469.634155,512.108398 469.735474,511.355286 469.865356,510.389954 C469.369263,510.557495 468.978241,510.566101 468.873383,510.743683 C467.552399,512.980713 466.298798,515.257629 464.976929,517.494080 C462.205658,522.182617 456.627045,522.836487 452.686188,525.886108 C451.493073,526.809448 448.970337,526.389038 451.743774,528.501709 C451.752625,528.508484 451.463715,529.112976 451.222198,529.209839 C448.534515,530.288147 445.828766,531.321289 442.707550,532.342651 C442.165924,532.186768 442.044586,532.054871 441.923279,531.922913 C438.429169,529.975891 435.166779,531.593628 433.363068,535.364624 C432.733276,536.681213 430.261688,537.047668 428.765045,538.048279 C428.022156,538.544983 427.582306,539.494873 427.005371,540.239746 C427.819458,540.715332 428.633514,541.190918 429.790527,541.866882 C425.069275,544.664795 419.174774,545.335266 414.083618,548.770142 C415.997070,546.756592 418.644745,544.965820 421.292419,543.175049 C420.973999,542.709412 420.655609,542.243713 420.337219,541.778015 C415.785645,543.886169 411.234070,545.994324 406.682495,548.102478 C406.598480,548.388733 406.514465,548.675049 406.430420,548.961365 C409.015625,548.961365 411.600861,548.961365 414.186066,548.961365 C412.776978,549.630005 411.416046,550.723816 409.950043,550.889832 C404.936920,551.457397 402.389008,555.764404 398.484253,557.940430 C397.293579,558.603943 395.493652,558.063599 394.066315,558.434448 C390.137604,559.455505 386.258423,560.667053 382.359650,561.803223 C382.226227,561.412109 382.092834,561.020996 381.959412,560.629822 C383.404724,559.966675 384.850037,559.303467 386.295319,558.640259 C386.054199,557.958069 385.813080,557.275818 385.571960,556.593567 C380.057739,558.125671 374.543488,559.657715 369.061890,561.567688 C369.094543,561.945557 369.163727,561.886230 369.163727,561.886230 C367.658997,560.270325 364.300476,565.956299 363.766663,560.516052 C362.873108,560.975403 361.556519,561.204651 361.159668,561.934204 C359.492981,564.997864 358.449280,565.359009 355.314117,563.917114 C354.050385,563.335999 352.483307,562.941772 351.134613,563.109192 C347.475464,563.563660 343.882629,564.564514 340.221771,564.990845 C328.015228,566.412537 315.801147,567.793762 303.565308,568.923828 C300.352539,569.220520 297.050964,568.371643 293.789795,568.368042 C288.069946,568.361694 282.279785,569.199219 276.653290,568.539185 C272.575317,568.060852 268.714111,565.734680 264.080566,563.976013 C264.050720,564.105835 263.783051,565.270935 263.365540,567.088196 C258.813385,565.970154 253.335434,564.624756 248.924591,563.541443 C247.364105,564.701660 246.232819,565.542786 244.581757,566.770386 C244.581757,564.933044 244.581757,564.023071 244.581757,563.113159 C244.343460,563.048035 244.105148,562.982910 243.866852,562.917786 C243.359131,563.930298 242.851425,564.942810 242.181610,566.278625 C239.935516,565.352356 237.737732,564.445984 235.914902,563.694214 C236.673889,562.797058 237.481308,561.842590 238.881241,560.187744 C236.053574,560.187744 234.421661,560.187744 232.163727,560.187744 C233.249725,560.764893 233.907043,561.114197 234.691376,561.531006 C233.601776,561.911743 232.566177,562.273560 231.126328,562.776672 C230.258881,561.357483 229.271271,559.741699 228.283661,558.125977 C227.180435,558.863708 226.077209,559.601501 225.482285,559.999390 C222.286179,559.999390 219.283234,559.999390 215.910065,559.999390 C217.307205,558.493408 218.345871,557.373840 219.384537,556.254272 C219.301498,555.729370 219.218460,555.204468 219.135422,554.679626 C211.205017,558.471863 204.901733,554.405518 198.450958,551.124695 C199.512634,551.389221 200.574326,551.653748 201.636002,551.918213 C201.767410,551.428162 201.898834,550.938110 202.030243,550.448120 C196.471619,548.446777 191.010040,546.091919 184.104156,547.289490 C186.058777,545.832031 187.486786,544.767212 188.914795,543.702454 C188.787720,543.475891 188.660660,543.249329 188.533600,543.022827 C186.113998,543.592590 183.694412,544.162354 181.358978,544.178101 C183.882248,542.071838 186.352631,540.565979 188.746613,538.947083 C189.870056,538.187378 191.760117,537.143921 191.702438,536.344482 C191.575150,534.579895 190.915665,532.080872 189.621246,531.307312 C184.095474,528.005005 178.340439,525.050903 172.515625,522.293945 C166.085953,519.250671 165.013626,520.106506 165.213699,527.657593 C161.200592,528.412903 158.947586,530.849548 158.960266,535.118347 C157.427719,534.792725 155.895157,534.467102 153.750244,534.011353 C155.059219,533.050049 155.837967,532.478149 157.118439,531.537781 C156.237946,531.162476 155.754044,530.786316 155.264954,530.779480 C153.773346,530.758545 151.480469,531.529724 150.918671,530.838745 C147.657822,526.828003 142.981720,525.357910 138.728271,523.031616 C136.602524,521.869019 136.137146,518.242310 132.034653,520.193115 C130.910080,520.727844 127.567863,516.759338 125.335144,514.755005 C123.354767,512.977295 121.713707,510.749603 119.550659,509.261627 C114.288795,505.641937 108.186501,503.015137 103.556442,498.755951 C95.238899,491.104675 87.753021,482.549347 79.628021,474.107422 C79.336426,473.843048 79.264130,473.723969 79.264130,473.723969 C76.410172,470.219299 73.556213,466.714661 70.399544,463.164154 C70.096832,463.118317 70.156410,463.185455 70.156403,463.185455 C68.803207,461.003540 67.459259,458.815674 66.064888,456.660400 C66.005653,456.568848 65.478958,456.779694 63.747860,457.852753 C33.650806,411.915466 13.859135,362.150177 10.469193,306.274567 C10.072133,294.343567 10.054569,282.601135 10.443767,270.195831 C12.696713,220.445602 29.203279,176.238968 55.468994,133.792358 C55.884361,136.363083 56.059986,137.450043 56.225151,138.472275 C108.814743,61.890312 181.107574,17.830204 273.008118,6.143225 C273.025604,3.563456 268.131134,8.986109 268.913727,4.085868 C271.332764,4.071648 273.751770,4.057427 276.467407,4.413151 C276.658875,4.912231 276.526367,5.028584 276.457977,5.174896 C276.410431,5.276515 276.450531,5.528396 276.452271,5.528402 C281.918182,5.550882 287.384216,5.560082 292.849548,5.504049 C292.876526,5.503772 292.894043,4.579141 292.915985,4.086185 M447.276154,441.701904 C447.039154,442.395966 446.802155,443.090027 446.565155,443.784119 C447.070221,443.546814 447.575256,443.309509 448.497009,442.965271 C448.340057,442.603363 448.183075,442.241455 447.276154,441.701904 M513.991089,356.375214 C512.728394,356.100983 511.465637,355.826752 509.835754,355.472778 C509.991364,357.331329 510.223083,360.098969 510.418182,362.429291 C512.585022,361.746979 513.784485,361.369263 515.234619,360.912628 C514.947266,359.210052 514.651733,357.459106 514.049683,355.059235 C514.049683,354.258148 514.049683,353.457031 514.049683,351.818359 C515.585632,354.431671 516.696411,356.321655 517.807190,358.211609 C518.356262,357.953430 518.905334,357.695221 519.454407,357.437012 C518.346008,354.038452 517.237549,350.639893 516.129150,347.241333 C515.411499,347.361298 514.693848,347.481262 513.976196,347.601196 C514.136719,350.275696 514.297241,352.950195 513.991089,356.375214 M564.688599,281.304810 C565.222229,281.895782 565.755920,282.486786 567.149902,284.030579 C566.604248,280.651001 566.272949,278.599304 565.880066,276.165955 C567.248901,276.828247 567.994385,277.188965 570.017029,278.167572 C568.636597,275.677643 567.881104,274.365356 567.177490,273.025818 C566.786865,272.282043 566.482910,271.492737 566.139954,270.723907 C570.244507,269.313263 567.378479,267.591766 566.463684,265.811829 C566.139893,265.181732 566.372253,264.145477 566.611389,263.375641 C566.936707,262.328247 568.119751,261.170227 567.877258,260.387329 C566.703064,256.596954 565.174683,252.916321 563.381042,248.160370 C562.716064,251.994995 562.190002,255.028793 561.639221,258.205017 C560.561096,256.678192 559.977295,255.851334 559.393433,255.024490 C558.950012,255.972565 558.132263,256.927551 558.149597,257.867096 C558.176697,259.329102 558.771301,260.780609 559.125366,262.236572 C558.667053,262.281097 558.208740,262.325623 557.750427,262.370148 C557.750427,257.786774 557.750427,253.203384 557.750427,248.409241 C551.350708,258.859772 551.774597,272.151184 564.688599,281.304810 M576.058350,238.222427 C574.464478,232.215149 572.870544,226.207870 571.276611,220.200592 C570.897461,220.301544 570.518311,220.402496 570.139160,220.503464 C571.755493,230.860352 573.371887,241.217239 574.988220,251.574127 C575.237366,251.533051 575.486450,251.491974 575.735596,251.450897 C576.003845,249.943192 576.272156,248.435486 576.540466,246.927795 C577.046082,247.057358 577.551758,247.186920 578.057434,247.316467 C577.742615,248.439529 577.263062,249.547821 577.160767,250.689911 C577.064880,251.761948 577.367737,252.869720 577.495117,253.961761 C579.961609,248.586960 578.289734,243.764786 576.058350,238.222427 M511.704041,426.700287 C512.341370,425.587677 512.978638,424.475067 513.558472,423.462799 C512.342407,422.880249 511.113739,422.291626 509.848114,421.685303 C510.714203,420.155792 511.443359,419.061676 511.937927,417.870148 C512.076294,417.536743 511.622925,416.612915 511.264679,416.494812 C510.648010,416.291626 509.449982,416.258087 509.264191,416.587158 C507.290710,420.081787 505.468872,423.662048 503.545593,427.332733 C506.596191,427.008942 508.828491,426.772003 511.704041,426.700287 M452.071594,438.675140 C452.760834,437.657806 453.450073,436.640503 454.139313,435.623169 C453.732208,435.302399 453.325073,434.981659 452.917938,434.660889 C450.974182,436.463043 449.030457,438.265167 447.086700,440.067291 C447.378326,440.487122 447.669922,440.906921 447.961548,441.326752 C449.281342,440.707367 450.601135,440.088013 452.071594,438.675140 M466.461365,419.060608 C467.034943,418.669006 467.608521,418.277435 468.182098,417.885864 C467.901154,417.583160 467.620178,417.280457 467.339233,416.977783 C466.824097,417.633514 466.308990,418.289246 466.461365,419.060608 M509.757050,466.892487 C510.107117,466.571136 510.457184,466.249786 510.807251,465.928436 C510.320129,466.040680 509.833038,466.152924 509.757050,466.892487 M470.797180,412.872711 C471.039856,413.174835 471.282562,413.476959 471.525269,413.779083 C471.454163,413.289215 471.383057,412.799347 470.797180,412.872711 M448.294708,140.666779 C448.792938,140.824799 449.291138,140.982834 449.789368,141.140854 C449.462830,140.794434 449.136322,140.447998 448.294708,140.666779 M470.496307,415.033356 C470.427490,415.236938 470.358643,415.440521 470.289856,415.644135 C470.484833,415.579803 470.679779,415.515503 470.496307,415.033356 M468.993805,414.559937 C468.773071,414.491852 468.552338,414.423767 468.331604,414.355682 C468.408356,414.570251 468.485107,414.784821 468.993805,414.559937 z"/>
  <path fill="#FFB800" opacity="1.000000" stroke="none" d=" M159.085388,535.387512 C158.947586,530.849548 161.200592,528.412903 165.213699,527.657593 C165.013626,520.106506 166.085953,519.250671 172.515625,522.293945 C178.340439,525.050903 184.095474,528.005005 189.621246,531.307312 C190.915665,532.080872 191.575150,534.579895 191.702438,536.344482 C191.760117,537.143921 189.870056,538.187378 188.746613,538.947083 C186.352631,540.565979 183.882248,542.071838 181.168549,543.837097 C179.663849,543.260010 178.433731,542.469910 177.324646,541.128540 C178.033234,538.751282 178.620789,536.925232 178.971664,535.834778 C175.613953,535.661377 173.073441,535.183899 170.642624,535.514038 C168.693069,535.778809 166.876572,537.023499 165.001022,537.833313 C163.070862,537.107727 161.140686,536.382202 159.085388,535.387512 z"/>
  <path fill="#FFB700" opacity="1.000000" stroke="none" d=" M485.999512,183.343994 C487.814301,183.323715 489.462036,183.646927 491.471619,183.984741 C490.985840,185.781937 489.377380,187.601135 489.461029,189.338867 C489.602112,192.270828 490.498535,195.285828 491.659485,198.018585 C493.061310,201.318420 495.069794,204.360565 495.894867,208.288849 C494.592773,206.831070 493.305786,205.359451 491.985107,203.918701 C489.916290,201.661667 487.415985,199.674988 485.852386,197.113541 C484.127808,194.288376 482.827332,191.020721 482.244110,187.783325 C482.043457,186.669678 484.558167,185.066864 485.999512,183.343994 z"/>
  <path fill="#FFB700" opacity="1.000000" stroke="none" d=" M479.963318,184.996109 C478.162048,183.573410 476.487152,182.324814 475.359772,180.697037 C473.258240,177.662766 471.475159,174.407928 469.546082,171.222687 C469.846039,171.156906 470.474518,171.019073 471.240601,170.851059 C470.825684,169.903793 470.381134,168.888947 469.936615,167.874115 C470.115845,167.778702 470.295105,167.683289 470.474365,167.587875 C474.324951,173.388657 478.175537,179.189453 482.032013,184.999100 C481.644623,184.999100 480.990662,184.999100 479.963318,184.996109 z"/>
  <path fill="#FFB800" opacity="1.000000" stroke="none" d=" M165.305542,537.970520 C166.876572,537.023499 168.693069,535.778809 170.642624,535.514038 C173.073441,535.183899 175.613953,535.661377 178.971664,535.834778 C178.620789,536.925232 178.033234,538.751282 177.169891,540.813660 C173.101486,540.189270 170.047913,536.493958 165.305542,537.970520 z"/>
  <path fill="#FFB600" opacity="1.000000" stroke="none" d=" M364.283569,566.349182 C365.829529,565.082581 367.375488,563.815918 369.042603,562.217773 C369.163727,561.886230 369.094543,561.945557 369.068726,561.980225 C369.820587,562.069031 370.600922,562.098999 371.375427,562.182800 C372.793213,562.336121 374.218414,562.696167 375.618042,562.609070 C376.194672,562.573181 376.713226,561.604370 377.258240,561.059937 C377.788269,561.945557 378.318329,562.831177 379.140839,564.205444 C374.380402,565.215149 370.144989,566.113464 365.298279,566.859558 C364.552490,566.587952 364.418030,566.468567 364.283569,566.349182 z"/>
  <path fill="#FFB700" opacity="1.000000" stroke="none" d=" M396.088318,479.018188 C394.156555,478.834900 392.191681,478.659119 389.557281,478.423401 C394.883728,475.457458 399.674164,472.790009 404.464600,470.122528 C404.799011,470.629089 405.133423,471.135620 405.467804,471.642151 C403.006500,473.292572 400.535461,474.928772 398.088715,476.600525 C397.146851,477.244049 396.260254,477.968536 395.692383,478.873505 C396.036316,479.090881 396.055237,479.025696 396.088318,479.018188 z"/>
  <path fill="#FFB800" opacity="1.000000" stroke="none" d=" M366.801514,483.655090 C369.858063,482.275085 372.633636,481.145325 375.409210,480.015564 C375.607910,480.470734 375.806580,480.925903 376.005280,481.381104 C371.993256,483.246094 367.981232,485.111115 363.969208,486.976105 C363.660950,486.126434 363.352692,485.276764 363.044434,484.427094 C364.203156,484.253143 365.361847,484.079224 366.801514,483.655090 z"/>
  <path fill="#FFB700" opacity="1.000000" stroke="none" d=" M405.554474,468.987244 C407.424927,467.914307 408.962128,467.148041 410.674835,466.294281 C409.932312,469.785797 407.327820,471.086639 405.554474,468.987244 z"/>
  <path fill="#FFB800" opacity="1.000000" stroke="none" d=" M78.955215,474.136749 C79.264130,473.723969 79.336426,473.843048 79.334900,473.812805 C79.448082,475.220154 79.562790,476.657745 79.677505,478.095306 C79.439018,478.194031 79.200539,478.292725 78.962051,478.391449 C78.143852,477.064301 77.325653,475.737183 76.217392,473.939545 C77.435768,474.245514 78.041031,474.397522 78.955215,474.136749 z"/>
  <path fill="#FFB800" opacity="1.000000" stroke="none" d=" M70.064865,463.086823 C70.025352,463.470612 70.017815,463.885864 69.854813,464.803314 C69.577065,465.436768 69.454781,465.568054 69.332504,465.699341 C68.608788,464.690979 67.885078,463.682617 66.549507,461.821716 C68.117439,462.422577 68.804169,462.685730 69.823654,463.067169 C70.156410,463.185455 70.096832,463.118317 70.064865,463.086823 z"/>
  <path fill="#FFB800" opacity="1.000000" stroke="none" d=" M69.889999,465.115540 C70.835098,465.889465 71.589539,466.853271 72.343979,467.817108 C71.999847,468.066498 71.655716,468.315887 71.311577,468.565277 C70.807564,467.805328 70.303551,467.045410 69.566017,465.992401 C69.454781,465.568054 69.577065,465.436768 69.889999,465.115540 z"/>
  <path fill="#FFB800" opacity="1.000000" stroke="none" d=" M74.607239,470.318207 C74.741547,471.209381 74.582314,471.763031 74.423088,472.316681 C73.979836,471.912170 73.536583,471.507690 73.093323,471.103210 C73.500114,470.729034 73.906914,470.354858 74.607239,470.318207 z"/>
  <path fill="#FFB800" opacity="1.000000" stroke="none" d=" M82.026573,479.567322 C82.127693,480.199524 81.974831,480.534607 81.821976,480.869690 C81.421120,480.355499 81.020248,479.841309 80.619385,479.327118 C81.003792,479.308136 81.388191,479.289154 82.026573,479.567322 z"/>
  <path fill="#FFB600" opacity="1.000000" stroke="none" d=" M364.880920,566.894775 C364.511536,567.304626 363.948181,567.527039 363.384857,567.749390 C363.538544,567.410583 363.692230,567.071655 364.064758,566.541016 C364.418030,566.468567 364.552490,566.587952 364.880920,566.894775 z"/>
  <path fill="#FFB800" opacity="1.000000" stroke="none" d=" M381.175354,562.876221 C380.944641,562.488708 381.094116,562.079712 381.243591,561.670715 C381.347595,562.065369 381.451569,562.460083 381.175354,562.876221 z"/>
  <path fill="#FFB700" opacity="1.000000" stroke="none" d=" M411.206787,466.127808 C411.487335,465.660522 411.967438,465.526093 412.447571,465.391663 C412.100494,465.747986 411.753418,466.104340 411.206787,466.127808 z"/>
  <path fill="#000000" opacity="1.000000" stroke="none" d=" M509.551483,466.578827 C509.833038,466.152924 510.320129,466.040680 510.807251,465.928436 C510.457184,466.249786 510.107117,466.571136 509.551483,466.578827 z"/>
  <path fill="#000000" opacity="1.000000" stroke="none" d=" M533.106384,442.880524 C532.696594,442.510315 532.474121,441.946960 532.251648,441.383606 C532.590515,441.538208 532.929443,441.692780 533.460083,442.066528 C533.532410,442.419556 533.413025,442.553467 533.106384,442.880524 z"/>
  <path fill="#000000" opacity="1.000000" stroke="none" d=" M448.552246,140.384171 C449.136322,140.447998 449.462830,140.794434 449.789368,141.140869 C449.291138,140.982834 448.792938,140.824799 448.552246,140.384171 z"/>
</svg>