<?xml version="1.0" encoding="utf-8"?>
<svg width="183" height="23" viewBox="0 0 183 23" fill="none" xmlns="http://www.w3.org/2000/svg">
  <g clip-path="url(#clip0_892_18165)">
    <path d="M14.3717 11.8259C12.4281 19.0802 10.4298 22.721 2.23104 22.721C1.49192 22.721 0.739117 22.6662 0 22.6389L1.60142 16.6575C1.82042 16.7259 2.0531 16.7396 2.31316 16.7396C4.91376 16.7396 5.46125 14.2896 6.02243 12.2228L9.21158 0.41062H17.424L14.3717 11.8259ZM35.5187 14.098H24.5688L23.8297 16.8354H37.517L36.0525 22.3104H14.1527L20.0246 0.41062H36.4494L34.9712 5.88556H26.7724L26.0333 8.62303H36.9832L35.5187 14.098ZM74.6781 5.88556C73.7885 4.55789 72.4608 4.51682 70.9415 4.51682C70.0929 4.51682 66.4521 4.64001 66.4521 6.00874C66.4521 8.03447 80.6185 7.73335 80.6185 13.8516C80.6185 21.0101 71.4616 22.721 66.0688 22.721C62.4006 22.721 55.4748 22.1735 55.4748 17.0955C55.4748 16.548 55.5569 16.0005 55.6938 15.4667H63.9062C63.9199 15.6994 64.0568 16.0142 64.18 16.1921C64.8643 17.2734 66.2741 17.5198 67.4649 17.5198C68.8884 17.5198 72.0776 17.5198 72.0776 15.5351C72.0776 12.9756 57.8153 13.8242 57.8153 8.06185C57.8153 7.30904 58.0617 6.56993 58.3355 5.88556H52.5046L48.0973 22.3104H39.8849L44.2922 5.88556H37.4349L38.9131 0.41062H60.8129L60.0053 3.40815C62.9618 0.479057 68.2314 0 72.1597 0C75.2256 0 80.9059 0.369558 82.5484 3.5724L83.397 0.41062H112.14L114.043 8.62303L120.353 0.41062H128.565L115.945 16.8354L114.481 22.3104H106.269L107.733 16.8354L107.747 16.8217L104.558 3.1344L103.818 5.88556H96.9885L92.5812 22.3104H84.3688L88.7761 5.88556H74.6781ZM139.939 22.3104H123.515L129.386 0.41062H137.599L133.192 16.8354H141.404L139.939 22.3104ZM162.674 14.098H151.724L150.985 16.8354H164.672L163.208 22.3104H141.308L147.18 0.41062H163.605L162.127 5.88556H153.928L153.189 8.62303H164.139L162.674 14.098Z" style="fill: rgb(255, 255, 255);"/>
    <path d="M166.465 0.410156H174.677L173.938 3.14762H178.044L178.783 0.410156H182.889L182.15 3.14762H178.044L177.319 5.88509H165L166.465 0.410156ZM170.379 11.36H174.485L173.746 14.0975H165.534L166.998 8.62256H171.105L170.379 11.36Z" fill="url(#paint0_linear_892_18165)"/>
  </g>
  <defs>
    <linearGradient id="paint0_linear_892_18165" x1="182.889" y1="0.410151" x2="163.497" y2="3.04807" gradientUnits="userSpaceOnUse">
      <stop stop-color="#FB57D4"/>
      <stop offset="1" stop-color="#4F5BFF"/>
    </linearGradient>
    <clipPath id="clip0_892_18165">
      <rect width="182.89" height="22.721" fill="white"/>
    </clipPath>
  </defs>
</svg>