<svg xmlns="http://www.w3.org/2000/svg" viewBox="0 0 1500 250"><path fill="#fff" d="M1480 0H686.363v235H1480z"/><path fill="#020a0a" d="M843.683 52.7567c.564-.0807 1.139-.0284 1.679.1525s1.031.4855 1.434.8898.706.8971.886 1.4394c.18.5424.232 1.1194.152 1.6854V75.523c0 2.9121-1.394 4.3602-4.151 4.3602h-84.084c-4.095-.085-8.185.3311-12.179 1.2388-2.895.6376-5.554 2.0755-7.677 4.1511-2.025 2.2196-3.424 4.9409-4.054 7.8837-.914 4.1071-1.328 8.3102-1.234 12.5172v26.95c-.091 4.239.323 8.474 1.234 12.614.605 2.999 2.006 5.778 4.054 8.044 2.113 2.085 4.768 3.529 7.661 4.168 3.994.907 8.084 1.323 12.179 1.238h84.1c.564-.08 1.139-.028 1.679.153s1.031.486 1.434.89.706.897.886 1.439c.18.543.232 1.12.152 1.686v18.599c.08.566.028 1.143-.152 1.685s-.483 1.035-.886 1.44c-.403.404-.894.708-1.434.889s-1.115.234-1.679.153h-85.222c-8.209.156-16.405-.736-24.391-2.655-6.076-1.456-11.691-4.421-16.329-8.624-4.405-4.271-7.601-9.64-9.263-15.558-2.11-7.563-3.098-15.397-2.933-23.249v-32.693c-.169-7.8211.819-15.6238 2.933-23.1529 1.678-5.8828 4.873-11.2165 9.263-15.4618 4.646-4.2101 10.255-7.2053 16.329-8.7204 7.975-1.9875 16.176-2.9126 24.391-2.7512z"/><path fill="#fff" d="M107.145 52.7567c14.487 0 24.877 3.2876 31.169 9.8627 6.293 6.5752 9.445 16.3146 9.455 29.2182V102.65c0 10.876-2.206 19.457-6.618 25.742-4.413 6.286-11.592 10.357-21.538 12.212l32.307 40.223c.328.388.553.852.653 1.35.101.498.075 1.013-.076 1.498-.257 1.271-1.266 1.899-3.029 1.899h-24.375c-1.161.088-2.326-.105-3.397-.563-.753-.497-1.397-1.143-1.891-1.899L89.95 143.629H28.8455v37.762c.0803.566.0283 1.143-.1519 1.685s-.4836 1.035-.8863 1.439c-.4026.405-.8935.709-1.4337.89s-1.1149.233-1.6786.153H4.34285C1.44228 185.558 0 184.174 0 181.391V58.4523c0-3.797 1.89098-5.6956 5.67295-5.6956zM28.8455 120.493H101.28c6.41 0 10.945-1.395 13.605-4.184 2.661-2.788 3.985-7.025 3.975-12.71v-8.0448c0-5.6956-1.325-9.9324-3.975-12.7105q-3.9735-4.16715-13.605-4.1832H31.3615c-1.6025 0-2.4519.7722-2.4519 2.2846zM272.782 52.7568c8.242-.1558 16.468.7691 24.471 2.7512 6.108 1.501 11.752 4.4969 16.426 8.7204 4.376 4.2393 7.542 9.5783 9.167 15.4618 2.046 7.541 3.001 15.3384 2.836 23.1528v32.629c.161 7.845-.794 15.674-2.836 23.249-1.609 5.918-4.775 11.293-9.167 15.558-4.665 4.216-10.315 7.182-16.426 8.624-8.013 1.914-16.235 2.806-24.471 2.655h-58.396c-8.204.156-16.394-.736-24.374-2.655-6.083-1.452-11.704-4.418-16.346-8.624-4.399-4.276-7.595-9.643-9.263-15.558-2.11-7.563-3.098-15.397-2.932-23.249v-32.629c-.17-7.821.819-15.6236 2.932-23.1528 1.685-5.88 4.879-11.2122 9.263-15.4618 4.651-4.213 10.265-7.2084 16.346-8.7204 7.969-1.9876 16.164-2.9126 24.374-2.7512zM190.396 133.38c-.081 4.179.328 8.354 1.218 12.437.612 3 2.018 5.78 4.071 8.045 2.108 2.081 4.757 3.525 7.644 4.167 3.999.916 8.095 1.332 12.195 1.239h56.089c4.095.093 8.186-.324 12.179-1.239 2.893-.639 5.548-2.083 7.66-4.167 2.048-2.267 3.448-5.046 4.054-8.045.905-4.081 1.319-8.257 1.234-12.437v-28.446c.084-4.18-.33-8.3553-1.234-12.4367-.606-2.999-2.006-5.7782-4.054-8.0447-2.123-2.0205-4.764-3.4078-7.628-4.0062-3.995-.9078-8.085-1.3238-12.179-1.2389h-56.089c-4.1-.0848-8.195.3312-12.195 1.2389-2.887.6421-5.536 2.086-7.644 4.1671-2.053 2.2651-3.459 5.0443-4.071 8.0447-.889 4.0834-1.298 8.2578-1.218 12.4368zM451.08 52.7568c8.241-.1558 16.468.7691 24.471 2.7512 6.106 1.5072 11.747 4.5024 16.426 8.7204 4.371 4.2432 7.535 9.5808 9.166 15.4618 2.046 7.5411 3.001 15.3384 2.836 23.1528v32.629c.162 7.845-.793 15.674-2.836 23.249-1.615 5.915-4.78 11.288-9.166 15.558-4.674 4.214-10.328 7.179-16.442 8.624-8.014 1.914-16.235 2.806-24.471 2.655H392.62c-8.204.155-16.395-.737-24.375-2.655-6.08-1.459-11.7-4.424-16.346-8.624-4.394-4.277-7.584-9.644-9.246-15.558-2.105-7.564-3.088-15.398-2.917-23.249v-32.629c-.169-7.821.819-15.6236 2.933-23.1528 1.678-5.8789 4.867-11.2112 9.246-15.4618 4.655-4.207 10.269-7.2015 16.346-8.7204 7.964-1.9853 16.154-2.9103 24.359-2.7512zM368.694 133.38c-.081 4.179.327 8.354 1.218 12.437.618 2.998 2.023 5.776 4.07 8.045 2.113 2.084 4.768 3.529 7.66 4.167 3.994.915 8.084 1.332 12.18 1.239h56.088c4.101.093 8.197-.323 12.195-1.239 2.887-.642 5.536-2.086 7.644-4.167 2.053-2.265 3.46-5.045 4.071-8.045.897-4.082 1.311-8.257 1.234-12.437v-28.446c.076-4.18-.338-8.354-1.234-12.4367-.611-3.0003-2.018-5.7795-4.071-8.0446-2.118-2.0173-4.754-3.4042-7.612-4.0063-4-.9077-8.095-1.3237-12.195-1.2389h-56.088c-4.095-.0849-8.185.3311-12.18 1.2389-2.892.6384-5.547 2.0827-7.66 4.1671-2.047 2.2692-3.452 5.0467-4.07 8.0447-.89 4.0835-1.299 8.2578-1.218 12.4368zM665.05 52.7567c2.884 0 4.343 1.3998 4.343 4.1671V75.523c.082.592.027 1.1952-.162 1.7621-.189.5668-.507 1.0819-.928 1.5046-.421.4226-.934.7414-1.498.9312-.565.1898-1.166.2453-1.755.1623h-59.294V181.39c.081.566.029 1.143-.152 1.686-.18.542-.483 1.035-.886 1.439-.403.405-.893.709-1.434.89-.54.181-1.115.233-1.678.153h-20.689c-.565.083-1.142.033-1.684-.147-.542-.179-1.035-.484-1.44-.888-.404-.405-.709-.899-.89-1.443-.181-.543-.233-1.122-.153-1.69V79.8832h-59.293c-.591.0858-1.194.0323-1.76-.1562-.567-.1886-1.082-.5069-1.505-.93-.423-.423-.742-.9391-.932-1.5074-.19-.5682-.245-1.173-.162-1.7666V56.9238c0-2.7673 1.458-4.1671 4.359-4.1671z"/><path fill="#020a0a" d="M972.27 52.7567c8.253-.1586 16.49.7663 24.503 2.7513 6.107 1.5009 11.747 4.4968 16.427 8.7203 4.39 4.2336 7.58 9.5731 9.21 15.4618 2.05 7.5411 3.01 15.3384 2.84 23.1529v32.629c.16 7.845-.79 15.674-2.84 23.249-1.6 5.918-4.77 11.292-9.16 15.558-4.68 4.223-10.35 7.19-16.477 8.624-8.013 1.914-16.235 2.806-24.471 2.655h-58.428c-8.204.155-16.394-.737-24.374-2.655-6.083-1.452-11.704-4.418-16.346-8.624-4.394-4.28-7.588-9.646-9.263-15.558-2.11-7.563-3.098-15.397-2.932-23.249v-32.629c-.17-7.8211.819-15.6237 2.932-23.1529 1.691-5.8773 4.884-11.2079 9.263-15.4618 4.651-4.213 10.265-7.2083 16.346-8.7203 7.969-1.9867 16.164-2.9118 24.374-2.7513zM889.884 133.38c-.081 4.179.328 8.354 1.218 12.437.612 3 2.018 5.78 4.071 8.045 2.108 2.081 4.757 3.525 7.644 4.167 3.999.916 8.095 1.332 12.195 1.239h56.089c4.095.092 8.185-.324 12.179-1.239 2.893-.639 5.547-2.083 7.66-4.167 2.047-2.269 3.452-5.047 4.07-8.045.891-4.083 1.299-8.258 1.218-12.437v-28.446c.081-4.179-.328-8.3533-1.218-12.4368-.618-2.998-2.023-5.7754-4.07-8.0446-2.123-2.0206-4.764-3.4078-7.628-4.0063-3.995-.9078-8.085-1.3238-12.179-1.2388h-56.089c-4.1-.0848-8.195.3312-12.195 1.2388-2.887.6421-5.536 2.0861-7.644 4.1672-2.053 2.2651-3.459 5.0443-4.071 8.0446-.889 4.0835-1.298 8.2579-1.218 12.4369zM1133.07 52.7568c8.86-.1406 17.7.9421 26.26 3.2178 6.67 1.7292 12.83 5.0398 17.95 9.6536 4.81 4.5883 8.35 10.3392 10.31 16.7006 2.33 7.7328 3.44 15.783 3.3 23.8602v25.743c.17 8.169-.95 16.313-3.3 24.134-1.96 6.355-5.51 12.099-10.31 16.685-5.13 4.605-11.28 7.915-17.95 9.653-8.57 2.235-17.41 3.285-26.26 3.121h-88.45c-3.78 0-5.65-1.898-5.65-5.695V58.4524c0-3.7971 1.87-5.6956 5.65-5.6956zm-65.19 103.9692c-.05.334-.02.675.09.996.1.321.28.613.52.852s.53.419.85.525c.32.107.66.137.99.088h61.99c4.7.097 9.39-.411 13.97-1.512 3.42-.827 6.56-2.529 9.13-4.939 2.47-2.524 4.2-5.671 5.02-9.107 1.09-4.594 1.6-9.308 1.51-14.03v-20.916c.09-4.727-.42-9.4463-1.51-14.0459-.83-3.4183-2.56-6.5483-5.02-9.0582-2.57-2.4154-5.73-4.1174-9.16-4.9394-4.58-1.0931-9.27-1.6013-13.98-1.5124h-61.95c-1.64 0-2.45.8849-2.45 2.6547zM1337.73 52.7567c2.9 0 4.36 1.3998 4.36 4.1671v18.0361c0 2.7834-1.46 4.1671-4.36 4.1671h-82.58c-4.1-.0849-8.19.3311-12.18 1.2389-2.92.6529-5.6 2.0939-7.76 4.1671-2.08 2.2388-3.49 5.03-4.05 8.0447-.83 4.092-1.21 8.2623-1.14 12.4373v1.818h106.76c.57-.084 1.14-.034 1.69.146.54.18 1.03.484 1.44.889.4.404.71.898.89 1.442s.23 1.122.15 1.69v14.995c.08.568.03 1.146-.15 1.69s-.49 1.038-.89 1.442c-.41.405-.9.709-1.44.889-.55.179-1.12.23-1.69.146h-106.76v3.218c-.07 4.175.31 8.345 1.14 12.437.56 3.015 1.97 5.806 4.05 8.045 2.16 2.073 4.84 3.514 7.76 4.167 3.99.915 8.08 1.331 12.18 1.239h82.58c2.9 0 4.36 1.399 4.36 4.183v18.02c0 2.783-1.46 4.167-4.36 4.167h-83.14c-8.21.155-16.4-.737-24.38-2.655-6.08-1.452-11.7-4.417-16.34-8.624-4.4-4.28-7.59-9.646-9.26-15.558-2.11-7.563-3.1-15.397-2.94-23.249v-32.709c-.17-7.8211.82-15.6237 2.94-23.1529 1.69-5.8773 4.88-11.2079 9.26-15.4618 4.65-4.213 10.26-7.2083 16.34-8.7203 7.97-1.9867 16.17-2.9118 24.38-2.7513zM1460.29 199.217c.46-.064.93-.02 1.37.129s.84.398 1.17.729c.33.33.58.733.73 1.176s.19.914.13 1.377v11.359c.06.463.02.935-.13 1.378s-.4.845-.73 1.176c-.33.33-.73.58-1.17.729-.44.148-.91.192-1.37.128h-112.43c-.46.057-.93.007-1.36-.146-.43-.152-.83-.403-1.15-.733s-.56-.73-.71-1.169c-.14-.439-.18-.905-.12-1.363v-11.391c-.07-.463-.02-.936.12-1.381.15-.445.4-.849.73-1.18s.73-.581 1.17-.728c.45-.148.92-.189 1.38-.122z"/></svg>