<?xml version="1.0" encoding="utf-8"?>
<svg xmlns="http://www.w3.org/2000/svg" height="196.692" width="167.417" version="1.1" viewBox="3.612 -14.13 139.167 139.314" xmlns:bx="https://boxy-svg.com">
  <defs>
    <clipPath id="clipPath3801" clipPathUnits="userSpaceOnUse">
      <path d="m301.85,68.616,16.056,0,0,19.436-16.056,0,0-19.436z"/>
    </clipPath>
    <linearGradient id="gradient-1" bx:pinned="true">
      <stop offset="0" style="stop-color: rgb(146, 178, 119);"/>
      <stop offset="1" style="stop-color: rgb(169, 198, 145);"/>
    </linearGradient>
    <linearGradient id="gradient-1-1" href="#gradient-1" gradientUnits="userSpaceOnUse" x1="-4.211" y1="1.633" x2="-4.211" y2="17.688"/>
  </defs>
  <g transform="matrix(1, 0, 0, 1, -604.466675, -441.089661)">
    <g transform="matrix(8.6617457,0,0,-8.6617457,-2006.4669,1189.6394)">
      <g clip-path="url(#clipPath3801)">
        <g transform="translate(314.0887,70.3635)">
          <path d="M -2.586 8.557 C -2.485 8.748 -2.508 8.715 -2.418 8.838 C -2.328 8.962 -2.272 8.951 -2.44 8.984 C -2.609 9.018 -2.632 9.119 -2.71 8.996 C -2.788 8.872 -2.811 8.827 -2.721 8.737 C -2.631 8.647 -2.721 8.602 -2.665 8.557 C -2.609 8.512 -2.586 8.557 -2.586 8.557 M -0.845 8.22 C -0.912 8.288 -1.024 8.31 -1.058 8.175 C -1.092 8.04 -1.226 8.007 -1.238 7.816 C -1.249 7.625 -1.272 7.569 -1.328 7.456 C -1.384 7.344 -1.339 7.198 -1.339 7.198 L -1.227 7.187 C -1.092 7.254 -1.058 7.333 -0.934 7.434 C -0.811 7.535 -0.755 7.557 -0.811 7.748 C -0.867 7.939 -0.777 8.153 -0.845 8.22 M 1.936 17.688 L -3.474 17.688 C -3.372 17.546 -3.082 17.25 -3.103 17.12 C -3.125 16.985 -2.856 16.805 -2.788 16.67 C -2.721 16.535 -2.384 16.648 -2.339 16.49 C -2.294 16.333 -2.002 16.378 -1.979 16.288 C -1.957 16.198 -1.957 15.996 -1.844 16.019 C -1.732 16.041 -1.642 16.288 -1.485 16.243 C -1.328 16.198 -1.126 16.311 -1.058 16.176 C -0.991 16.041 -0.991 15.974 -1.058 15.906 C -1.126 15.839 -1.126 15.704 -0.946 15.726 C -0.766 15.749 -0.721 15.861 -0.519 15.794 C -0.317 15.726 -0.316 15.884 -0.159 15.884 C -0.002 15.884 0.178 15.726 0.2 15.637 C 0.223 15.547 0.425 15.412 0.515 15.412 C 0.605 15.412 0.852 15.457 0.942 15.344 C 1.032 15.232 1.212 15.12 1.122 14.962 C 1.032 14.805 1.009 14.535 1.009 14.535 L 1.257 14.4 C 1.279 14.266 1.436 14.221 1.302 13.906 C 1.167 13.591 1.234 13.636 1.347 13.547 C 1.459 13.457 1.549 13.367 1.571 13.097 C 1.594 12.827 1.526 12.782 1.773 12.692 C 2.021 12.603 2.155 12.535 2.38 12.355 C 2.605 12.176 2.717 12.108 2.965 12.063 C 3.212 12.018 3.414 12.063 3.459 11.839 C 3.504 11.614 3.639 11.659 3.661 11.389 C 3.676 11.218 3.772 11.21 3.817 11.157 L 3.817 15.807 C 3.817 16.842 2.97 17.688 1.936 17.688 M 3.591 8.074 C 3.577 8.032 3.565 7.997 3.553 7.966 C 3.506 7.841 3.467 7.786 3.347 7.681 C 3.167 7.524 3.122 7.659 2.92 7.614 C 2.717 7.569 2.673 7.478 2.47 7.299 C 2.268 7.119 2.088 7.052 2.021 7.164 C 1.953 7.276 1.819 7.187 1.819 7.187 C 1.819 7.187 1.819 7.119 1.594 7.097 C 1.369 7.074 1.594 7.187 1.347 7.187 C 1.099 7.187 1.122 7.119 1.122 7.119 L 1.032 7.029 C 0.875 7.029 0.875 7.254 0.74 7.254 C 0.605 7.254 0.65 7.321 0.493 7.142 C 0.335 6.962 0.11 7.074 0.021 6.894 C -0.069 6.715 0.043 6.782 -0.137 6.625 C -0.317 6.467 -0.547 6.414 -0.609 6.198 C -0.698 5.883 -0.676 5.995 -0.946 5.995 C -1.215 5.995 -1.215 6.04 -1.418 5.906 C -1.62 5.771 -1.688 5.703 -1.867 5.636 C -2.047 5.568 -2.159 5.501 -2.316 5.456 C -2.474 5.411 -2.339 5.119 -2.451 4.894 C -2.564 4.669 -2.654 4.445 -2.654 4.063 C -2.654 3.681 -2.654 3.591 -2.609 3.231 C -2.564 2.872 -2.564 2.242 -2.496 1.973 C -2.449 1.783 -2.292 1.727 -2.209 1.633 L 1.936 1.633 C 2.97 1.633 3.817 2.479 3.817 3.513 L 3.817 8.278 C 3.757 8.212 3.682 8.145 3.591 8.074 M -12.044 13.592 C -12.018 13.612 -11.992 13.63 -11.964 13.646 C -11.718 13.794 -11.408 13.828 -11.109 13.848 C -11.074 13.857 -11.04 13.869 -11.008 13.881 C -10.913 13.917 -10.834 13.962 -10.767 13.996 C -10.632 14.063 -10.564 14.041 -10.362 13.928 C -10.16 13.816 -9.98 13.928 -9.935 13.996 C -9.89 14.063 -10.002 14.086 -9.98 14.356 C -9.958 14.625 -9.8 14.738 -9.665 14.872 C -9.53 15.007 -9.261 15.142 -9.193 15.299 C -9.126 15.457 -9.059 15.479 -8.901 15.412 C -8.744 15.344 -8.587 15.412 -8.587 15.412 L -8.564 15.479 C -8.564 15.479 -8.632 15.524 -8.542 15.659 C -8.452 15.794 -8.272 16.019 -8.205 15.974 C -8.137 15.929 -8.159 16.018 -8.047 16.198 C -7.935 16.378 -7.957 16.491 -7.688 16.513 C -7.418 16.535 -7.328 16.58 -7.171 16.648 C -7.013 16.715 -6.879 16.85 -6.879 16.985 C -6.879 17.12 -6.946 17.255 -6.699 17.299 C -6.452 17.344 -6.384 17.345 -6.092 17.524 C -6.001 17.58 -5.925 17.637 -5.857 17.688 L -10.358 17.688 C -11.393 17.688 -12.239 16.842 -12.239 15.807 L -12.239 13.405 C -12.225 13.431 -12.209 13.453 -12.192 13.473 C -12.139 13.533 -12.073 13.569 -12.044 13.592 M -5.339 8.142 C -5.294 8.097 -5.182 8.04 -5.182 8.04 C -5.081 8.007 -4.98 8.018 -5.013 8.108 C -5.047 8.198 -5.114 8.119 -5.126 8.209 C -5.137 8.299 -5.081 8.288 -5.238 8.31 C -5.395 8.333 -5.452 8.377 -5.44 8.276 C -5.429 8.175 -5.384 8.187 -5.339 8.142 M -10.358 1.633 L -4.984 1.633 C -4.94 1.67 -4.888 1.716 -4.834 1.77 C -4.676 1.928 -4.474 2.422 -4.474 2.692 C -4.474 2.961 -4.317 3.501 -4.452 3.905 C -4.586 4.31 -4.631 4.647 -4.744 4.917 C -4.856 5.186 -4.924 5.478 -4.856 5.793 C -4.789 6.108 -4.856 6.535 -4.991 6.49 C -5.126 6.445 -5.216 6.467 -5.395 6.535 C -5.575 6.602 -5.845 6.872 -6.002 6.962 C -6.159 7.052 -6.249 7.186 -6.362 7.299 C -6.474 7.411 -6.339 7.569 -6.474 7.659 C -6.609 7.748 -6.789 7.906 -6.856 7.973 C -6.924 8.04 -7.036 8.063 -7.126 7.973 C -7.216 7.883 -7.306 7.771 -7.463 7.793 C -7.62 7.816 -7.755 7.973 -7.868 7.86 C -7.98 7.748 -8.025 7.659 -8.115 7.659 C -8.205 7.659 -8.34 7.726 -8.34 7.816 C -8.34 7.906 -8.272 8.018 -8.497 7.951 C -8.721 7.883 -8.924 7.838 -8.991 7.995 C -9.059 8.153 -9.149 8.175 -9.171 8.265 C -9.193 8.355 -9.216 8.535 -9.171 8.602 C -9.126 8.67 -9.216 8.76 -9.306 8.782 C -9.396 8.804 -9.328 8.872 -9.328 9.007 C -9.328 9.142 -9.508 8.984 -9.53 9.142 C -9.553 9.299 -9.328 9.524 -9.418 9.636 C -9.508 9.748 -9.53 9.636 -9.53 9.636 C -9.53 9.636 -9.733 9.591 -9.868 9.591 C -10.002 9.591 -10.25 9.771 -10.34 9.703 C -10.43 9.636 -10.43 9.726 -10.564 9.748 C -10.699 9.771 -10.811 9.681 -10.946 9.771 C -11.081 9.861 -11.306 9.973 -11.306 10.063 C -11.306 10.153 -11.463 10.31 -11.463 10.4 C -11.463 10.49 -11.553 10.625 -11.62 10.647 C -11.688 10.67 -11.598 10.939 -11.598 10.939 L -11.688 10.939 C -11.688 10.939 -11.688 10.917 -11.823 10.895 C -11.856 10.889 -11.889 10.886 -11.918 10.887 C -12.031 10.946 -12.127 11.031 -12.223 11.114 C -12.229 11.119 -12.234 11.123 -12.239 11.127 L -12.239 3.513 C -12.239 2.479 -11.393 1.633 -10.358 1.633 M -4.541 9.602 C -4.497 9.513 -4.429 9.445 -4.429 9.445 C -4.362 9.524 -4.407 9.535 -4.328 9.614 C -4.249 9.692 -4.193 9.658 -4.249 9.771 C -4.305 9.883 -4.306 9.939 -4.395 9.861 C -4.485 9.782 -4.575 9.804 -4.609 9.737 C -4.642 9.67 -4.586 9.692 -4.541 9.602" fill-rule="nonzero" style="paint-order: stroke; stroke-width: 0.11545px; fill: url(&quot;#gradient-1-1&quot;);"/>
        </g>
      </g>
    </g>
  </g>
</svg>